<svg version="1.1" xmlns="http://www.w3.org/2000/svg" xmlns:xlink="http://www.w3.org/1999/xlink" width="1112.54443359375" height="565"><defs/><g><text fill="#eeeeee" stroke="none" font-family="Arial" font-size="24px" font-style="normal" font-weight="normal" text-decoration="none" x="0" y="0">UNREGISTERED</text><text fill="#eeeeee" stroke="none" font-family="Arial" font-size="24px" font-style="normal" font-weight="normal" text-decoration="none" x="0" y="30">UNREGISTERED</text><text fill="#eeeeee" stroke="none" font-family="Arial" font-size="24px" font-style="normal" font-weight="normal" text-decoration="none" x="0" y="60">UNREGISTERED</text><text fill="#eeeeee" stroke="none" font-family="Arial" font-size="24px" font-style="normal" font-weight="normal" text-decoration="none" x="0" y="90">UNREGISTERED</text><text fill="#eeeeee" stroke="none" font-family="Arial" font-size="24px" font-style="normal" font-weight="normal" text-decoration="none" x="0" y="120">UNREGISTERED</text><text fill="#eeeeee" stroke="none" font-family="Arial" font-size="24px" font-style="normal" font-weight="normal" text-decoration="none" x="0" y="150">UNREGISTERED</text><text fill="#eeeeee" stroke="none" font-family="Arial" font-size="24px" font-style="normal" font-weight="normal" text-decoration="none" x="0" y="180">UNREGISTERED</text><text fill="#eeeeee" stroke="none" font-family="Arial" font-size="24px" font-style="normal" font-weight="normal" text-decoration="none" x="0" y="210">UNREGISTERED</text><text fill="#eeeeee" stroke="none" font-family="Arial" font-size="24px" font-style="normal" font-weight="normal" text-decoration="none" x="0" y="240">UNREGISTERED</text><text fill="#eeeeee" stroke="none" font-family="Arial" font-size="24px" font-style="normal" font-weight="normal" text-decoration="none" x="0" y="270">UNREGISTERED</text><text fill="#eeeeee" stroke="none" font-family="Arial" font-size="24px" font-style="normal" font-weight="normal" text-decoration="none" x="0" y="300">UNREGISTERED</text><text fill="#eeeeee" stroke="none" font-family="Arial" font-size="24px" font-style="normal" font-weight="normal" text-decoration="none" x="0" y="330">UNREGISTERED</text><text fill="#eeeeee" stroke="none" font-family="Arial" font-size="24px" font-style="normal" font-weight="normal" text-decoration="none" x="0" y="360">UNREGISTERED</text><text fill="#eeeeee" stroke="none" font-family="Arial" font-size="24px" font-style="normal" font-weight="normal" text-decoration="none" x="0" y="390">UNREGISTERED</text><text fill="#eeeeee" stroke="none" font-family="Arial" font-size="24px" font-style="normal" font-weight="normal" text-decoration="none" x="0" y="420">UNREGISTERED</text><text fill="#eeeeee" stroke="none" font-family="Arial" font-size="24px" font-style="normal" font-weight="normal" text-decoration="none" x="0" y="450">UNREGISTERED</text><text fill="#eeeeee" stroke="none" font-family="Arial" font-size="24px" font-style="normal" font-weight="normal" text-decoration="none" x="0" y="480">UNREGISTERED</text><text fill="#eeeeee" stroke="none" font-family="Arial" font-size="24px" font-style="normal" font-weight="normal" text-decoration="none" x="0" y="510">UNREGISTERED</text><text fill="#eeeeee" stroke="none" font-family="Arial" font-size="24px" font-style="normal" font-weight="normal" text-decoration="none" x="0" y="540">UNREGISTERED</text><text fill="#eeeeee" stroke="none" font-family="Arial" font-size="24px" font-style="normal" font-weight="normal" text-decoration="none" x="200" y="0">UNREGISTERED</text><text fill="#eeeeee" stroke="none" font-family="Arial" font-size="24px" font-style="normal" font-weight="normal" text-decoration="none" x="200" y="30">UNREGISTERED</text><text fill="#eeeeee" stroke="none" font-family="Arial" font-size="24px" font-style="normal" font-weight="normal" text-decoration="none" x="200" y="60">UNREGISTERED</text><text fill="#eeeeee" stroke="none" font-family="Arial" font-size="24px" font-style="normal" font-weight="normal" text-decoration="none" x="200" y="90">UNREGISTERED</text><text fill="#eeeeee" stroke="none" font-family="Arial" font-size="24px" font-style="normal" font-weight="normal" text-decoration="none" x="200" y="120">UNREGISTERED</text><text fill="#eeeeee" stroke="none" font-family="Arial" font-size="24px" font-style="normal" font-weight="normal" text-decoration="none" x="200" y="150">UNREGISTERED</text><text fill="#eeeeee" stroke="none" font-family="Arial" font-size="24px" font-style="normal" font-weight="normal" text-decoration="none" x="200" y="180">UNREGISTERED</text><text fill="#eeeeee" stroke="none" font-family="Arial" font-size="24px" font-style="normal" font-weight="normal" text-decoration="none" x="200" y="210">UNREGISTERED</text><text fill="#eeeeee" stroke="none" font-family="Arial" font-size="24px" font-style="normal" font-weight="normal" text-decoration="none" x="200" y="240">UNREGISTERED</text><text fill="#eeeeee" stroke="none" font-family="Arial" font-size="24px" font-style="normal" font-weight="normal" text-decoration="none" x="200" y="270">UNREGISTERED</text><text fill="#eeeeee" stroke="none" font-family="Arial" font-size="24px" font-style="normal" font-weight="normal" text-decoration="none" x="200" y="300">UNREGISTERED</text><text fill="#eeeeee" stroke="none" font-family="Arial" font-size="24px" font-style="normal" font-weight="normal" text-decoration="none" x="200" y="330">UNREGISTERED</text><text fill="#eeeeee" stroke="none" font-family="Arial" font-size="24px" font-style="normal" font-weight="normal" text-decoration="none" x="200" y="360">UNREGISTERED</text><text fill="#eeeeee" stroke="none" font-family="Arial" font-size="24px" font-style="normal" font-weight="normal" text-decoration="none" x="200" y="390">UNREGISTERED</text><text fill="#eeeeee" stroke="none" font-family="Arial" font-size="24px" font-style="normal" font-weight="normal" text-decoration="none" x="200" y="420">UNREGISTERED</text><text fill="#eeeeee" stroke="none" font-family="Arial" font-size="24px" font-style="normal" font-weight="normal" text-decoration="none" x="200" y="450">UNREGISTERED</text><text fill="#eeeeee" stroke="none" font-family="Arial" font-size="24px" font-style="normal" font-weight="normal" text-decoration="none" x="200" y="480">UNREGISTERED</text><text fill="#eeeeee" stroke="none" font-family="Arial" font-size="24px" font-style="normal" font-weight="normal" text-decoration="none" x="200" y="510">UNREGISTERED</text><text fill="#eeeeee" stroke="none" font-family="Arial" font-size="24px" font-style="normal" font-weight="normal" text-decoration="none" x="200" y="540">UNREGISTERED</text><text fill="#eeeeee" stroke="none" font-family="Arial" font-size="24px" font-style="normal" font-weight="normal" text-decoration="none" x="400" y="0">UNREGISTERED</text><text fill="#eeeeee" stroke="none" font-family="Arial" font-size="24px" font-style="normal" font-weight="normal" text-decoration="none" x="400" y="30">UNREGISTERED</text><text fill="#eeeeee" stroke="none" font-family="Arial" font-size="24px" font-style="normal" font-weight="normal" text-decoration="none" x="400" y="60">UNREGISTERED</text><text fill="#eeeeee" stroke="none" font-family="Arial" font-size="24px" font-style="normal" font-weight="normal" text-decoration="none" x="400" y="90">UNREGISTERED</text><text fill="#eeeeee" stroke="none" font-family="Arial" font-size="24px" font-style="normal" font-weight="normal" text-decoration="none" x="400" y="120">UNREGISTERED</text><text fill="#eeeeee" stroke="none" font-family="Arial" font-size="24px" font-style="normal" font-weight="normal" text-decoration="none" x="400" y="150">UNREGISTERED</text><text fill="#eeeeee" stroke="none" font-family="Arial" font-size="24px" font-style="normal" font-weight="normal" text-decoration="none" x="400" y="180">UNREGISTERED</text><text fill="#eeeeee" stroke="none" font-family="Arial" font-size="24px" font-style="normal" font-weight="normal" text-decoration="none" x="400" y="210">UNREGISTERED</text><text fill="#eeeeee" stroke="none" font-family="Arial" font-size="24px" font-style="normal" font-weight="normal" text-decoration="none" x="400" y="240">UNREGISTERED</text><text fill="#eeeeee" stroke="none" font-family="Arial" font-size="24px" font-style="normal" font-weight="normal" text-decoration="none" x="400" y="270">UNREGISTERED</text><text fill="#eeeeee" stroke="none" font-family="Arial" font-size="24px" font-style="normal" font-weight="normal" text-decoration="none" x="400" y="300">UNREGISTERED</text><text fill="#eeeeee" stroke="none" font-family="Arial" font-size="24px" font-style="normal" font-weight="normal" text-decoration="none" x="400" y="330">UNREGISTERED</text><text fill="#eeeeee" stroke="none" font-family="Arial" font-size="24px" font-style="normal" font-weight="normal" text-decoration="none" x="400" y="360">UNREGISTERED</text><text fill="#eeeeee" stroke="none" font-family="Arial" font-size="24px" font-style="normal" font-weight="normal" text-decoration="none" x="400" y="390">UNREGISTERED</text><text fill="#eeeeee" stroke="none" font-family="Arial" font-size="24px" font-style="normal" font-weight="normal" text-decoration="none" x="400" y="420">UNREGISTERED</text><text fill="#eeeeee" stroke="none" font-family="Arial" font-size="24px" font-style="normal" font-weight="normal" text-decoration="none" x="400" y="450">UNREGISTERED</text><text fill="#eeeeee" stroke="none" font-family="Arial" font-size="24px" font-style="normal" font-weight="normal" text-decoration="none" x="400" y="480">UNREGISTERED</text><text fill="#eeeeee" stroke="none" font-family="Arial" font-size="24px" font-style="normal" font-weight="normal" text-decoration="none" x="400" y="510">UNREGISTERED</text><text fill="#eeeeee" stroke="none" font-family="Arial" font-size="24px" font-style="normal" font-weight="normal" text-decoration="none" x="400" y="540">UNREGISTERED</text><text fill="#eeeeee" stroke="none" font-family="Arial" font-size="24px" font-style="normal" font-weight="normal" text-decoration="none" x="600" y="0">UNREGISTERED</text><text fill="#eeeeee" stroke="none" font-family="Arial" font-size="24px" font-style="normal" font-weight="normal" text-decoration="none" x="600" y="30">UNREGISTERED</text><text fill="#eeeeee" stroke="none" font-family="Arial" font-size="24px" font-style="normal" font-weight="normal" text-decoration="none" x="600" y="60">UNREGISTERED</text><text fill="#eeeeee" stroke="none" font-family="Arial" font-size="24px" font-style="normal" font-weight="normal" text-decoration="none" x="600" y="90">UNREGISTERED</text><text fill="#eeeeee" stroke="none" font-family="Arial" font-size="24px" font-style="normal" font-weight="normal" text-decoration="none" x="600" y="120">UNREGISTERED</text><text fill="#eeeeee" stroke="none" font-family="Arial" font-size="24px" font-style="normal" font-weight="normal" text-decoration="none" x="600" y="150">UNREGISTERED</text><text fill="#eeeeee" stroke="none" font-family="Arial" font-size="24px" font-style="normal" font-weight="normal" text-decoration="none" x="600" y="180">UNREGISTERED</text><text fill="#eeeeee" stroke="none" font-family="Arial" font-size="24px" font-style="normal" font-weight="normal" text-decoration="none" x="600" y="210">UNREGISTERED</text><text fill="#eeeeee" stroke="none" font-family="Arial" font-size="24px" font-style="normal" font-weight="normal" text-decoration="none" x="600" y="240">UNREGISTERED</text><text fill="#eeeeee" stroke="none" font-family="Arial" font-size="24px" font-style="normal" font-weight="normal" text-decoration="none" x="600" y="270">UNREGISTERED</text><text fill="#eeeeee" stroke="none" font-family="Arial" font-size="24px" font-style="normal" font-weight="normal" text-decoration="none" x="600" y="300">UNREGISTERED</text><text fill="#eeeeee" stroke="none" font-family="Arial" font-size="24px" font-style="normal" font-weight="normal" text-decoration="none" x="600" y="330">UNREGISTERED</text><text fill="#eeeeee" stroke="none" font-family="Arial" font-size="24px" font-style="normal" font-weight="normal" text-decoration="none" x="600" y="360">UNREGISTERED</text><text fill="#eeeeee" stroke="none" font-family="Arial" font-size="24px" font-style="normal" font-weight="normal" text-decoration="none" x="600" y="390">UNREGISTERED</text><text fill="#eeeeee" stroke="none" font-family="Arial" font-size="24px" font-style="normal" font-weight="normal" text-decoration="none" x="600" y="420">UNREGISTERED</text><text fill="#eeeeee" stroke="none" font-family="Arial" font-size="24px" font-style="normal" font-weight="normal" text-decoration="none" x="600" y="450">UNREGISTERED</text><text fill="#eeeeee" stroke="none" font-family="Arial" font-size="24px" font-style="normal" font-weight="normal" text-decoration="none" x="600" y="480">UNREGISTERED</text><text fill="#eeeeee" stroke="none" font-family="Arial" font-size="24px" font-style="normal" font-weight="normal" text-decoration="none" x="600" y="510">UNREGISTERED</text><text fill="#eeeeee" stroke="none" font-family="Arial" font-size="24px" font-style="normal" font-weight="normal" text-decoration="none" x="600" y="540">UNREGISTERED</text><text fill="#eeeeee" stroke="none" font-family="Arial" font-size="24px" font-style="normal" font-weight="normal" text-decoration="none" x="800" y="0">UNREGISTERED</text><text fill="#eeeeee" stroke="none" font-family="Arial" font-size="24px" font-style="normal" font-weight="normal" text-decoration="none" x="800" y="30">UNREGISTERED</text><text fill="#eeeeee" stroke="none" font-family="Arial" font-size="24px" font-style="normal" font-weight="normal" text-decoration="none" x="800" y="60">UNREGISTERED</text><text fill="#eeeeee" stroke="none" font-family="Arial" font-size="24px" font-style="normal" font-weight="normal" text-decoration="none" x="800" y="90">UNREGISTERED</text><text fill="#eeeeee" stroke="none" font-family="Arial" font-size="24px" font-style="normal" font-weight="normal" text-decoration="none" x="800" y="120">UNREGISTERED</text><text fill="#eeeeee" stroke="none" font-family="Arial" font-size="24px" font-style="normal" font-weight="normal" text-decoration="none" x="800" y="150">UNREGISTERED</text><text fill="#eeeeee" stroke="none" font-family="Arial" font-size="24px" font-style="normal" font-weight="normal" text-decoration="none" x="800" y="180">UNREGISTERED</text><text fill="#eeeeee" stroke="none" font-family="Arial" font-size="24px" font-style="normal" font-weight="normal" text-decoration="none" x="800" y="210">UNREGISTERED</text><text fill="#eeeeee" stroke="none" font-family="Arial" font-size="24px" font-style="normal" font-weight="normal" text-decoration="none" x="800" y="240">UNREGISTERED</text><text fill="#eeeeee" stroke="none" font-family="Arial" font-size="24px" font-style="normal" font-weight="normal" text-decoration="none" x="800" y="270">UNREGISTERED</text><text fill="#eeeeee" stroke="none" font-family="Arial" font-size="24px" font-style="normal" font-weight="normal" text-decoration="none" x="800" y="300">UNREGISTERED</text><text fill="#eeeeee" stroke="none" font-family="Arial" font-size="24px" font-style="normal" font-weight="normal" text-decoration="none" x="800" y="330">UNREGISTERED</text><text fill="#eeeeee" stroke="none" font-family="Arial" font-size="24px" font-style="normal" font-weight="normal" text-decoration="none" x="800" y="360">UNREGISTERED</text><text fill="#eeeeee" stroke="none" font-family="Arial" font-size="24px" font-style="normal" font-weight="normal" text-decoration="none" x="800" y="390">UNREGISTERED</text><text fill="#eeeeee" stroke="none" font-family="Arial" font-size="24px" font-style="normal" font-weight="normal" text-decoration="none" x="800" y="420">UNREGISTERED</text><text fill="#eeeeee" stroke="none" font-family="Arial" font-size="24px" font-style="normal" font-weight="normal" text-decoration="none" x="800" y="450">UNREGISTERED</text><text fill="#eeeeee" stroke="none" font-family="Arial" font-size="24px" font-style="normal" font-weight="normal" text-decoration="none" x="800" y="480">UNREGISTERED</text><text fill="#eeeeee" stroke="none" font-family="Arial" font-size="24px" font-style="normal" font-weight="normal" text-decoration="none" x="800" y="510">UNREGISTERED</text><text fill="#eeeeee" stroke="none" font-family="Arial" font-size="24px" font-style="normal" font-weight="normal" text-decoration="none" x="800" y="540">UNREGISTERED</text><text fill="#eeeeee" stroke="none" font-family="Arial" font-size="24px" font-style="normal" font-weight="normal" text-decoration="none" x="1000" y="0">UNREGISTERED</text><text fill="#eeeeee" stroke="none" font-family="Arial" font-size="24px" font-style="normal" font-weight="normal" text-decoration="none" x="1000" y="30">UNREGISTERED</text><text fill="#eeeeee" stroke="none" font-family="Arial" font-size="24px" font-style="normal" font-weight="normal" text-decoration="none" x="1000" y="60">UNREGISTERED</text><text fill="#eeeeee" stroke="none" font-family="Arial" font-size="24px" font-style="normal" font-weight="normal" text-decoration="none" x="1000" y="90">UNREGISTERED</text><text fill="#eeeeee" stroke="none" font-family="Arial" font-size="24px" font-style="normal" font-weight="normal" text-decoration="none" x="1000" y="120">UNREGISTERED</text><text fill="#eeeeee" stroke="none" font-family="Arial" font-size="24px" font-style="normal" font-weight="normal" text-decoration="none" x="1000" y="150">UNREGISTERED</text><text fill="#eeeeee" stroke="none" font-family="Arial" font-size="24px" font-style="normal" font-weight="normal" text-decoration="none" x="1000" y="180">UNREGISTERED</text><text fill="#eeeeee" stroke="none" font-family="Arial" font-size="24px" font-style="normal" font-weight="normal" text-decoration="none" x="1000" y="210">UNREGISTERED</text><text fill="#eeeeee" stroke="none" font-family="Arial" font-size="24px" font-style="normal" font-weight="normal" text-decoration="none" x="1000" y="240">UNREGISTERED</text><text fill="#eeeeee" stroke="none" font-family="Arial" font-size="24px" font-style="normal" font-weight="normal" text-decoration="none" x="1000" y="270">UNREGISTERED</text><text fill="#eeeeee" stroke="none" font-family="Arial" font-size="24px" font-style="normal" font-weight="normal" text-decoration="none" x="1000" y="300">UNREGISTERED</text><text fill="#eeeeee" stroke="none" font-family="Arial" font-size="24px" font-style="normal" font-weight="normal" text-decoration="none" x="1000" y="330">UNREGISTERED</text><text fill="#eeeeee" stroke="none" font-family="Arial" font-size="24px" font-style="normal" font-weight="normal" text-decoration="none" x="1000" y="360">UNREGISTERED</text><text fill="#eeeeee" stroke="none" font-family="Arial" font-size="24px" font-style="normal" font-weight="normal" text-decoration="none" x="1000" y="390">UNREGISTERED</text><text fill="#eeeeee" stroke="none" font-family="Arial" font-size="24px" font-style="normal" font-weight="normal" text-decoration="none" x="1000" y="420">UNREGISTERED</text><text fill="#eeeeee" stroke="none" font-family="Arial" font-size="24px" font-style="normal" font-weight="normal" text-decoration="none" x="1000" y="450">UNREGISTERED</text><text fill="#eeeeee" stroke="none" font-family="Arial" font-size="24px" font-style="normal" font-weight="normal" text-decoration="none" x="1000" y="480">UNREGISTERED</text><text fill="#eeeeee" stroke="none" font-family="Arial" font-size="24px" font-style="normal" font-weight="normal" text-decoration="none" x="1000" y="510">UNREGISTERED</text><text fill="#eeeeee" stroke="none" font-family="Arial" font-size="24px" font-style="normal" font-weight="normal" text-decoration="none" x="1000" y="540">UNREGISTERED</text><g transform="translate(-6,-134) scale(1,1)"><path fill="#C0C0C0" stroke="none" d="M 103 304.5 C 103 299.2532944 107.2532944 295 112.5 295 C 117.7467056 295 122 299.2532944 122 304.5 C 122 309.7467056 117.7467056 314 112.5 314 C 107.2532944 314 103 309.7467056 103 304.5 Z" opacity="0.2"/></g><g transform="translate(-6,-134) scale(1,1)"><path fill="#000000" stroke="none" d="M 96 297.5 C 96 292.2532944 100.2532944 288 105.5 288 C 110.7467056 288 115 292.2532944 115 297.5 C 115 302.7467056 110.7467056 307 105.5 307 C 100.2532944 307 96 302.7467056 96 297.5 Z"/></g><g transform="translate(-6,-134) scale(1,1)"><path fill="#C0C0C0" stroke="none" d="M 225 287 L 357.0380859375 287 Q 367.0380859375 287 367.0380859375 297 L 367.0380859375 317 Q 367.0380859375 327 357.0380859375 327 L 225 327 Q 215 327 215 317 L 215 297 Q 215 287 225 287 Z" opacity="0.2"/></g><g transform="translate(-6,-134) scale(1,1)"><path fill="#ffffff" stroke="none" d="M 218 280 L 350.0380859375 280 Q 360.0380859375 280 360.0380859375 290 L 360.0380859375 310 Q 360.0380859375 320 350.0380859375 320 L 218 320 Q 208 320 208 310 L 208 290 Q 208 280 218 280 Z"/></g><g transform="translate(-6,-134) scale(1,1)"><path fill="none" stroke="#000000" d="M 218 280 L 350.0380859375 280 Q 360.0380859375 280 360.0380859375 290 L 360.0380859375 310 Q 360.0380859375 320 350.0380859375 320 L 218 320 Q 208 320 208 310 L 208 290 Q 208 280 218 280 Z" stroke-miterlimit="10"/></g><g transform="translate(-6,-134) scale(1,1)"><g><path fill="none" stroke="none"/><text fill="#000000" stroke="none" font-family="Arial" font-size="13px" font-style="normal" font-weight="bold" text-decoration="none" x="212.5" y="298">Mark “Out for delivery”</text></g></g><g transform="translate(-6,-134) scale(1,1)"><path fill="#C0C0C0" stroke="none" d="M 513 287 L 562.68994140625 287 Q 572.68994140625 287 572.68994140625 297 L 572.68994140625 317 Q 572.68994140625 327 562.68994140625 327 L 513 327 Q 503 327 503 317 L 503 297 Q 503 287 513 287 Z" opacity="0.2"/></g><g transform="translate(-6,-134) scale(1,1)"><path fill="#ffffff" stroke="none" d="M 506 280 L 555.68994140625 280 Q 565.68994140625 280 565.68994140625 290 L 565.68994140625 310 Q 565.68994140625 320 555.68994140625 320 L 506 320 Q 496 320 496 310 L 496 290 Q 496 280 506 280 Z"/></g><g transform="translate(-6,-134) scale(1,1)"><path fill="none" stroke="#000000" d="M 506 280 L 555.68994140625 280 Q 565.68994140625 280 565.68994140625 290 L 565.68994140625 310 Q 565.68994140625 320 555.68994140625 320 L 506 320 Q 496 320 496 310 L 496 290 Q 496 280 506 280 Z" stroke-miterlimit="10"/></g><g transform="translate(-6,-134) scale(1,1)"><g><path fill="none" stroke="none"/><text fill="#000000" stroke="none" font-family="Arial" font-size="13px" font-style="normal" font-weight="bold" text-decoration="none" x="500.5" y="297.5">set status</text></g></g><g transform="translate(-6,-134) scale(1,1)"><path fill="none" stroke="#000000" d="M 116 297 L 207 299" stroke-miterlimit="10"/></g><g transform="translate(-6,-134) scale(1,1)"><path fill="none" stroke="#000000" d="M 196.74728417201678 302.9851998884149 L 207 299 L 196.93227324697236 294.5681969779365" stroke-miterlimit="10"/></g><g transform="translate(-6,-134) scale(1,1)"><g><path fill="none" stroke="none"/><text fill="#000000" stroke="none" font-family="Arial" font-size="13px" font-style="normal" font-weight="normal" text-decoration="none" x="139.5" y="288">Courier</text></g></g><g transform="translate(-6,-134) scale(1,1)"><path fill="none" stroke="#000000" d="M 361 300 L 495 300" stroke-miterlimit="10"/></g><g transform="translate(-6,-134) scale(1,1)"><path fill="none" stroke="#000000" d="M 484.83732514237585 304.209517756016 L 495 300 L 484.83732514237585 295.790482243984" stroke-miterlimit="10"/></g><g transform="translate(-6,-134) scale(1,1)"><g><path fill="none" stroke="none"/><text fill="#000000" stroke="none" font-family="Arial" font-size="13px" font-style="normal" font-weight="normal" text-decoration="none" x="387.5" y="290">ParcelService</text></g></g><g transform="translate(-6,-134) scale(1,1)"><path fill="#ffffff" stroke="none" d="M 480 144 L 568 144 L 578 154 L 578 192 L 480 192 L 480 144"/></g><g transform="translate(-6,-134) scale(1,1)"><path fill="none" stroke="#000000" d="M 480 144 L 568 144 L 578 154 L 578 192 L 480 192 L 480 144 L 480 144" stroke-miterlimit="10"/></g><g transform="translate(-6,-134) scale(1,1)"><path fill="none" stroke="#000000" d="M 568 144 L 568 154 L 578 154 L 568 144" stroke-miterlimit="10"/></g><g transform="translate(-6,-134) scale(1,1)"><g><path fill="none" stroke="none"/><text fill="#000000" stroke="none" font-family="Arial" font-size="13px" font-style="normal" font-weight="normal" text-decoration="none" x="485" y="159">DataBase</text></g></g><g transform="translate(-6,-134) scale(1,1)"><path fill="none" stroke="#000000" d="M 530 279 L 529 194" stroke-miterlimit="10" stroke-dasharray="3"/></g><g transform="translate(-6,-134) scale(1,1)"><path fill="#C0C0C0" stroke="none" d="M 713 287 L 848.6435546875 287 Q 858.6435546875 287 858.6435546875 297 L 858.6435546875 317 Q 858.6435546875 327 848.6435546875 327 L 713 327 Q 703 327 703 317 L 703 297 Q 703 287 713 287 Z" opacity="0.2"/></g><g transform="translate(-6,-134) scale(1,1)"><path fill="#ffffff" stroke="none" d="M 706 280 L 841.6435546875 280 Q 851.6435546875 280 851.6435546875 290 L 851.6435546875 310 Q 851.6435546875 320 841.6435546875 320 L 706 320 Q 696 320 696 310 L 696 290 Q 696 280 706 280 Z"/></g><g transform="translate(-6,-134) scale(1,1)"><path fill="none" stroke="#000000" d="M 706 280 L 841.6435546875 280 Q 851.6435546875 280 851.6435546875 290 L 851.6435546875 310 Q 851.6435546875 320 841.6435546875 320 L 706 320 Q 696 320 696 310 L 696 290 Q 696 280 706 280 Z" stroke-miterlimit="10"/></g><g transform="translate(-6,-134) scale(1,1)"><g><path fill="none" stroke="none"/><text fill="#000000" stroke="none" font-family="Arial" font-size="13px" font-style="normal" font-weight="bold" text-decoration="none" x="700.5" y="298">client “Out for delivery”</text></g></g><g transform="translate(-6,-134) scale(1,1)"><path fill="none" stroke="#000000" d="M 567 300 L 695 300" stroke-miterlimit="10"/></g><g transform="translate(-6,-134) scale(1,1)"><path fill="none" stroke="#000000" d="M 684.8373251423759 304.209517756016 L 695 300 L 684.8373251423758 295.790482243984" stroke-miterlimit="10"/></g><g transform="translate(-6,-134) scale(1,1)"><g><path fill="none" stroke="none"/><text fill="#000000" stroke="none" font-family="Arial" font-size="13px" font-style="normal" font-weight="normal" text-decoration="none" x="577.5" y="290">NotificationService</text></g></g><g transform="translate(-6,-134) scale(1,1)"><path fill="#C0C0C0" stroke="none" d="M 993 287 L 1105.54443359375 287 Q 1115.54443359375 287 1115.54443359375 297 L 1115.54443359375 317 Q 1115.54443359375 327 1105.54443359375 327 L 993 327 Q 983 327 983 317 L 983 297 Q 983 287 993 287 Z" opacity="0.2"/></g><g transform="translate(-6,-134) scale(1,1)"><path fill="#ffffff" stroke="none" d="M 986 280 L 1098.54443359375 280 Q 1108.54443359375 280 1108.54443359375 290 L 1108.54443359375 310 Q 1108.54443359375 320 1098.54443359375 320 L 986 320 Q 976 320 976 310 L 976 290 Q 976 280 986 280 Z"/></g><g transform="translate(-6,-134) scale(1,1)"><path fill="none" stroke="#000000" d="M 986 280 L 1098.54443359375 280 Q 1108.54443359375 280 1108.54443359375 290 L 1108.54443359375 310 Q 1108.54443359375 320 1098.54443359375 320 L 986 320 Q 976 320 976 310 L 976 290 Q 976 280 986 280 Z" stroke-miterlimit="10"/></g><g transform="translate(-6,-134) scale(1,1)"><g><path fill="none" stroke="none"/><text fill="#000000" stroke="none" font-family="Arial" font-size="13px" font-style="normal" font-weight="bold" text-decoration="none" x="980.5" y="298">Navigate to address</text></g></g><g transform="translate(-6,-134) scale(1,1)"><path fill="none" stroke="#000000" d="M 853 300 L 975 300" stroke-miterlimit="10"/></g><g transform="translate(-6,-134) scale(1,1)"><path fill="none" stroke="#000000" d="M 964.8373251423759 304.209517756016 L 975 300 L 964.8373251423758 295.790482243984" stroke-miterlimit="10"/></g><g transform="translate(-6,-134) scale(1,1)"><g><path fill="none" stroke="none"/><text fill="#000000" stroke="none" font-family="Arial" font-size="13px" font-style="normal" font-weight="normal" text-decoration="none" x="878.5" y="291">Maps &amp; Geo</text></g></g><g transform="translate(-6,-134) scale(1,1)"><path fill="#C0C0C0" stroke="none" d="M 1039 451.5 L 1059.5 431 L 1079 451.5 L 1059.5 471 L 1039 451.5" opacity="0.2"/></g><g transform="translate(-6,-134) scale(1,1)"><path fill="#ffffff" stroke="none" d="M 1032 444 L 1052 424 L 1072 444 L 1052 464 L 1032 444"/></g><g transform="translate(-6,-134) scale(1,1)"><path fill="none" stroke="#000000" d="M 1032 444 L 1052 424 L 1072 444 L 1052 464 L 1032 444 L 1032 444" stroke-miterlimit="10"/></g><g transform="translate(-6,-134) scale(1,1)"><path fill="#C0C0C0" stroke="none" d="M 801 431 L 864.39453125 431 Q 874.39453125 431 874.39453125 441 L 874.39453125 461 Q 874.39453125 471 864.39453125 471 L 801 471 Q 791 471 791 461 L 791 441 Q 791 431 801 431 Z" opacity="0.2"/></g><g transform="translate(-6,-134) scale(1,1)"><path fill="#ffffff" stroke="none" d="M 794 424 L 857.39453125 424 Q 867.39453125 424 867.39453125 434 L 867.39453125 454 Q 867.39453125 464 857.39453125 464 L 794 464 Q 784 464 784 454 L 784 434 Q 784 424 794 424 Z"/></g><g transform="translate(-6,-134) scale(1,1)"><path fill="none" stroke="#000000" d="M 794 424 L 857.39453125 424 Q 867.39453125 424 867.39453125 434 L 867.39453125 454 Q 867.39453125 464 857.39453125 464 L 794 464 Q 784 464 784 454 L 784 434 Q 784 424 794 424 Z" stroke-miterlimit="10"/></g><g transform="translate(-6,-134) scale(1,1)"><g><path fill="none" stroke="none"/><text fill="#000000" stroke="none" font-family="Arial" font-size="13px" font-style="normal" font-weight="bold" text-decoration="none" x="788.5" y="442">Initiate COD</text></g></g><g transform="translate(-6,-134) scale(1,1)"><path fill="none" stroke="#000000" d="M 1031 444 L 868 444" stroke-miterlimit="10"/></g><g transform="translate(-6,-134) scale(1,1)"><path fill="none" stroke="#000000" d="M 878.1626748576241 439.790482243984 L 868 444 L 878.1626748576241 448.209517756016" stroke-miterlimit="10"/></g><g transform="translate(-6,-134) scale(1,1)"><g><path fill="none" stroke="none"/><text fill="#000000" stroke="none" font-family="Arial" font-size="13px" font-style="normal" font-weight="normal" text-decoration="none" x="1015.5" y="474">CODRequired</text></g></g><g transform="translate(-6,-134) scale(1,1)"><g><path fill="none" stroke="none"/><text fill="#000000" stroke="none" font-family="Arial" font-size="13px" font-style="normal" font-weight="normal" text-decoration="none" x="929.5" y="458.5">«yes»</text></g></g><g transform="translate(-6,-134) scale(1,1)"><path fill="none" stroke="#000000" d="M 1043 321 L 1051 423" stroke-miterlimit="10"/></g><g transform="translate(-6,-134) scale(1,1)"><path fill="none" stroke="#000000" d="M 1046.0087379940583 413.19758684873756 L 1051 423 L 1054.4019976001698 412.53929197767" stroke-miterlimit="10"/></g><g transform="translate(-6,-134) scale(1,1)"><path fill="#C0C0C0" stroke="none" d="M 615 447.5 L 643.5 431 L 671 447.5 L 643.5 463 L 615 447.5" opacity="0.2"/></g><g transform="translate(-6,-134) scale(1,1)"><path fill="#ffffff" stroke="none" d="M 608 440 L 636 424 L 664 440 L 636 456 L 608 440"/></g><g transform="translate(-6,-134) scale(1,1)"><path fill="none" stroke="#000000" d="M 608 440 L 636 424 L 664 440 L 636 456 L 608 440 L 608 440" stroke-miterlimit="10"/></g><g transform="translate(-6,-134) scale(1,1)"><path fill="none" stroke="#000000" d="M 783 443 L 665 441" stroke-miterlimit="10"/></g><g transform="translate(-6,-134) scale(1,1)"><path fill="none" stroke="#000000" d="M 675.2325529497012 436.96331074622276 L 665 441 L 675.089877924473 445.3811372346954" stroke-miterlimit="10"/></g><g transform="translate(-6,-134) scale(1,1)"><path fill="#C0C0C0" stroke="none" d="M 585 527 L 705.50439453125 527 Q 715.50439453125 527 715.50439453125 537 L 715.50439453125 557 Q 715.50439453125 567 705.50439453125 567 L 585 567 Q 575 567 575 557 L 575 537 Q 575 527 585 527 Z" opacity="0.2"/></g><g transform="translate(-6,-134) scale(1,1)"><path fill="#ffffff" stroke="none" d="M 578 520 L 698.50439453125 520 Q 708.50439453125 520 708.50439453125 530 L 708.50439453125 550 Q 708.50439453125 560 698.50439453125 560 L 578 560 Q 568 560 568 550 L 568 530 Q 568 520 578 520 Z"/></g><g transform="translate(-6,-134) scale(1,1)"><path fill="none" stroke="#000000" d="M 578 520 L 698.50439453125 520 Q 708.50439453125 520 708.50439453125 530 L 708.50439453125 550 Q 708.50439453125 560 698.50439453125 560 L 578 560 Q 568 560 568 550 L 568 530 Q 568 520 578 520 Z" stroke-miterlimit="10"/></g><g transform="translate(-6,-134) scale(1,1)"><g><path fill="none" stroke="none"/><text fill="#000000" stroke="none" font-family="Arial" font-size="13px" font-style="normal" font-weight="bold" text-decoration="none" x="572.5" y="538">Offer retry lor escalat</text></g></g><g transform="translate(-6,-134) scale(1,1)"><path fill="none" stroke="#000000" d="M 636 457 L 638 519" stroke-miterlimit="10"/></g><g transform="translate(-6,-134) scale(1,1)"><path fill="none" stroke="#000000" d="M 633.4650129238797 508.9783288709207 L 638 519 L 641.8796715000755 508.70688827168857" stroke-miterlimit="10"/></g><g transform="translate(-6,-134) scale(1,1)"><g><path fill="none" stroke="none"/><text fill="#000000" stroke="none" font-family="Arial" font-size="13px" font-style="normal" font-weight="normal" text-decoration="none" x="641.5" y="492">«Failed»</text></g></g><g transform="translate(-6,-134) scale(1,1)"><path fill="#C0C0C0" stroke="none" d="M 631 659.5 C 631 652.59644 636.59644 647 643.5 647 C 650.40356 647 656 652.59644 656 659.5 C 656 666.40356 650.40356 672 643.5 672 C 636.59644 672 631 666.40356 631 659.5 Z" opacity="0.2"/></g><g transform="translate(-6,-134) scale(1,1)"><path fill="none" stroke="#000000" d="M 624 652.5 C 624 645.59644 629.59644 640 636.5 640 C 643.40356 640 649 645.59644 649 652.5 C 649 659.40356 643.40356 665 636.5 665 C 629.59644 665 624 659.40356 624 652.5 Z" stroke-miterlimit="10"/></g><g transform="translate(-6,-134) scale(1,1)"><path fill="#000000" stroke="none" d="M 629 652.5 C 629 648.357864 632.357864 645 636.5 645 C 640.642136 645 644 648.357864 644 652.5 C 644 656.642136 640.642136 660 636.5 660 C 632.357864 660 629 656.642136 629 652.5 Z"/></g><g transform="translate(-6,-134) scale(1,1)"><path fill="none" stroke="#000000" d="M 638 561 L 636 639" stroke-miterlimit="10"/></g><g transform="translate(-6,-134) scale(1,1)"><path fill="none" stroke="#000000" d="M 632.0523611490146 628.732763395042 L 636 639 L 640.4686304262053 628.9485651713802" stroke-miterlimit="10"/></g><g transform="translate(-6,-134) scale(1,1)"><path fill="#ffffff" stroke="none" d="M 704 624 L 792 624 L 802 634 L 802 672 L 704 672 L 704 624"/></g><g transform="translate(-6,-134) scale(1,1)"><path fill="none" stroke="#000000" d="M 704 624 L 792 624 L 802 634 L 802 672 L 704 672 L 704 624 L 704 624" stroke-miterlimit="10"/></g><g transform="translate(-6,-134) scale(1,1)"><path fill="none" stroke="#000000" d="M 792 624 L 792 634 L 802 634 L 792 624" stroke-miterlimit="10"/></g><g transform="translate(-6,-134) scale(1,1)"><g><path fill="none" stroke="none"/><text fill="#000000" stroke="none" font-family="Arial" font-size="13px" font-style="normal" font-weight="normal" text-decoration="none" x="709" y="639">Undelivered</text></g></g><g transform="translate(-6,-134) scale(1,1)"><path fill="none" stroke="#000000" d="M 637 600 L 703 627" stroke-miterlimit="10" stroke-dasharray="3"/></g><g transform="translate(-6,-134) scale(1,1)"><path fill="#C0C0C0" stroke="none" d="M 409 423 L 478.90087890625 423 Q 488.90087890625 423 488.90087890625 433 L 488.90087890625 453 Q 488.90087890625 463 478.90087890625 463 L 409 463 Q 399 463 399 453 L 399 433 Q 399 423 409 423 Z" opacity="0.2"/></g><g transform="translate(-6,-134) scale(1,1)"><path fill="#ffffff" stroke="none" d="M 402 416 L 471.90087890625 416 Q 481.90087890625 416 481.90087890625 426 L 481.90087890625 446 Q 481.90087890625 456 471.90087890625 456 L 402 456 Q 392 456 392 446 L 392 426 Q 392 416 402 416 Z"/></g><g transform="translate(-6,-134) scale(1,1)"><path fill="none" stroke="#000000" d="M 402 416 L 471.90087890625 416 Q 481.90087890625 416 481.90087890625 426 L 481.90087890625 446 Q 481.90087890625 456 471.90087890625 456 L 402 456 Q 392 456 392 446 L 392 426 Q 392 416 402 416 Z" stroke-miterlimit="10"/></g><g transform="translate(-6,-134) scale(1,1)"><g><path fill="none" stroke="none"/><text fill="#000000" stroke="none" font-family="Arial" font-size="13px" font-style="normal" font-weight="bold" text-decoration="none" x="396.5" y="434">Capture POD</text></g></g><g transform="translate(-6,-134) scale(1,1)"><path fill="none" stroke="#000000" d="M 607 439 L 483 437" stroke-miterlimit="10"/></g><g transform="translate(-6,-134) scale(1,1)"><path fill="none" stroke="#000000" d="M 493.2292398455387 432.95492247510094 L 483 437 L 493.09346660944544 441.37286311288267" stroke-miterlimit="10"/></g><g transform="translate(-6,-134) scale(1,1)"><g><path fill="none" stroke="none"/><text fill="#000000" stroke="none" font-family="Arial" font-size="13px" font-style="normal" font-weight="normal" text-decoration="none" x="510.5" y="428">«successful »</text></g></g><g transform="translate(-6,-134) scale(1,1)"><path fill="#C0C0C0" stroke="none" d="M 169 423 L 297.4453125 423 Q 307.4453125 423 307.4453125 433 L 307.4453125 453 Q 307.4453125 463 297.4453125 463 L 169 463 Q 159 463 159 453 L 159 433 Q 159 423 169 423 Z" opacity="0.2"/></g><g transform="translate(-6,-134) scale(1,1)"><path fill="#ffffff" stroke="none" d="M 162 416 L 290.4453125 416 Q 300.4453125 416 300.4453125 426 L 300.4453125 446 Q 300.4453125 456 290.4453125 456 L 162 456 Q 152 456 152 446 L 152 426 Q 152 416 162 416 Z"/></g><g transform="translate(-6,-134) scale(1,1)"><path fill="none" stroke="#000000" d="M 162 416 L 290.4453125 416 Q 300.4453125 416 300.4453125 426 L 300.4453125 446 Q 300.4453125 456 290.4453125 456 L 162 456 Q 152 456 152 446 L 152 426 Q 152 416 162 416 Z" stroke-miterlimit="10"/></g><g transform="translate(-6,-134) scale(1,1)"><g><path fill="none" stroke="none"/><text fill="#000000" stroke="none" font-family="Arial" font-size="13px" font-style="normal" font-weight="bold" text-decoration="none" x="156.5" y="434">Save POD &amp; set status</text></g></g><g transform="translate(-6,-134) scale(1,1)"><path fill="#C0C0C0" stroke="none" d="M 153 543 L 308.87353515625 543 Q 318.87353515625 543 318.87353515625 553 L 318.87353515625 573 Q 318.87353515625 583 308.87353515625 583 L 153 583 Q 143 583 143 573 L 143 553 Q 143 543 153 543 Z" opacity="0.2"/></g><g transform="translate(-6,-134) scale(1,1)"><path fill="#ffffff" stroke="none" d="M 146 536 L 301.87353515625 536 Q 311.87353515625 536 311.87353515625 546 L 311.87353515625 566 Q 311.87353515625 576 301.87353515625 576 L 146 576 Q 136 576 136 566 L 136 546 Q 136 536 146 536 Z"/></g><g transform="translate(-6,-134) scale(1,1)"><path fill="none" stroke="#000000" d="M 146 536 L 301.87353515625 536 Q 311.87353515625 536 311.87353515625 546 L 311.87353515625 566 Q 311.87353515625 576 301.87353515625 576 L 146 576 Q 136 576 136 566 L 136 546 Q 136 536 146 536 Z" stroke-miterlimit="10"/></g><g transform="translate(-6,-134) scale(1,1)"><g><path fill="none" stroke="none"/><text fill="#000000" stroke="none" font-family="Arial" font-size="13px" font-style="normal" font-weight="bold" text-decoration="none" x="140.5" y="554">Send delivery confirmation</text></g></g><g transform="translate(-6,-134) scale(1,1)"><path fill="none" stroke="#000000" d="M 391 436 L 301 436" stroke-miterlimit="10"/></g><g transform="translate(-6,-134) scale(1,1)"><path fill="none" stroke="#000000" d="M 311.16267485762415 431.790482243984 L 301 436 L 311.16267485762415 440.209517756016" stroke-miterlimit="10"/></g><g transform="translate(-6,-134) scale(1,1)"><g><path fill="none" stroke="none"/><text fill="#000000" stroke="none" font-family="Arial" font-size="13px" font-style="normal" font-weight="normal" text-decoration="none" x="304.5" y="456">ParcelService</text></g></g><g transform="translate(-6,-134) scale(1,1)"><path fill="#ffffff" stroke="none" d="M 16 376 L 104 376 L 114 386 L 114 451 L 16 451 L 16 376"/></g><g transform="translate(-6,-134) scale(1,1)"><path fill="none" stroke="#000000" d="M 16 376 L 104 376 L 114 386 L 114 451 L 16 451 L 16 376 L 16 376" stroke-miterlimit="10"/></g><g transform="translate(-6,-134) scale(1,1)"><path fill="none" stroke="#000000" d="M 104 376 L 104 386 L 114 386 L 104 376" stroke-miterlimit="10"/></g><g transform="translate(-6,-134) scale(1,1)"><g><path fill="none" stroke="none"/><text fill="#000000" stroke="none" font-family="Arial" font-size="13px" font-style="normal" font-weight="normal" text-decoration="none" x="21" y="391">Save POD +</text><text fill="#000000" stroke="none" font-family="Arial" font-size="13px" font-style="normal" font-weight="normal" text-decoration="none" x="21" y="403">set status =</text><text fill="#000000" stroke="none" font-family="Arial" font-size="13px" font-style="normal" font-weight="normal" text-decoration="none" x="21" y="417">Delivered</text><text fill="#000000" stroke="none" font-family="Arial" font-size="13px" font-style="normal" font-weight="normal" text-decoration="none" x="21" y="430">(Action → DB)</text></g></g><g transform="translate(-6,-134) scale(1,1)"><path fill="none" stroke="#000000" d="M 151 426 L 116 421" stroke-miterlimit="10" stroke-dasharray="3"/></g><g transform="translate(-6,-134) scale(1,1)"><path fill="none" stroke="#000000" d="M 225 457 L 224 535" stroke-miterlimit="10"/></g><g transform="translate(-6,-134) scale(1,1)"><path fill="none" stroke="#000000" d="M 219.9211081481628 524.7841964945964 L 224 535 L 228.33945184577954 524.8921239778992" stroke-miterlimit="10"/></g><g transform="translate(-6,-134) scale(1,1)"><path fill="#C0C0C0" stroke="none" d="M 215 683.5 C 215 676.59644 220.59644 671 227.5 671 C 234.40356 671 240 676.59644 240 683.5 C 240 690.40356 234.40356 696 227.5 696 C 220.59644 696 215 690.40356 215 683.5 Z" opacity="0.2"/></g><g transform="translate(-6,-134) scale(1,1)"><path fill="none" stroke="#000000" d="M 208 676.5 C 208 669.59644 213.59644 664 220.5 664 C 227.40356 664 233 669.59644 233 676.5 C 233 683.40356 227.40356 689 220.5 689 C 213.59644 689 208 683.40356 208 676.5 Z" stroke-miterlimit="10"/></g><g transform="translate(-6,-134) scale(1,1)"><path fill="#000000" stroke="none" d="M 213 676.5 C 213 672.357864 216.357864 669 220.5 669 C 224.642136 669 228 672.357864 228 676.5 C 228 680.642136 224.642136 684 220.5 684 C 216.357864 684 213 680.642136 213 676.5 Z"/></g><g transform="translate(-6,-134) scale(1,1)"><path fill="none" stroke="#000000" d="M 222 577 L 220 663" stroke-miterlimit="10"/></g><g transform="translate(-6,-134) scale(1,1)"><path fill="none" stroke="#000000" d="M 216.02789749637546 652.7422028826506 L 220 663 L 224.44465728583253 652.9379414824056" stroke-miterlimit="10"/></g><g transform="translate(-6,-134) scale(1,1)"><g><path fill="none" stroke="none"/><text fill="#000000" stroke="none" font-family="Arial" font-size="13px" font-style="normal" font-weight="normal" text-decoration="none" x="226.5" y="622">NotificationService</text></g></g></g></svg>