<svg version="1.1" xmlns="http://www.w3.org/2000/svg" xmlns:xlink="http://www.w3.org/1999/xlink" width="927.8671875" height="303"><defs/><g><text fill="#eeeeee" stroke="none" font-family="Arial" font-size="24px" font-style="normal" font-weight="normal" text-decoration="none" x="0" y="0">UNREGISTERED</text><text fill="#eeeeee" stroke="none" font-family="Arial" font-size="24px" font-style="normal" font-weight="normal" text-decoration="none" x="0" y="30">UNREGISTERED</text><text fill="#eeeeee" stroke="none" font-family="Arial" font-size="24px" font-style="normal" font-weight="normal" text-decoration="none" x="0" y="60">UNREGISTERED</text><text fill="#eeeeee" stroke="none" font-family="Arial" font-size="24px" font-style="normal" font-weight="normal" text-decoration="none" x="0" y="90">UNREGISTERED</text><text fill="#eeeeee" stroke="none" font-family="Arial" font-size="24px" font-style="normal" font-weight="normal" text-decoration="none" x="0" y="120">UNREGISTERED</text><text fill="#eeeeee" stroke="none" font-family="Arial" font-size="24px" font-style="normal" font-weight="normal" text-decoration="none" x="0" y="150">UNREGISTERED</text><text fill="#eeeeee" stroke="none" font-family="Arial" font-size="24px" font-style="normal" font-weight="normal" text-decoration="none" x="0" y="180">UNREGISTERED</text><text fill="#eeeeee" stroke="none" font-family="Arial" font-size="24px" font-style="normal" font-weight="normal" text-decoration="none" x="0" y="210">UNREGISTERED</text><text fill="#eeeeee" stroke="none" font-family="Arial" font-size="24px" font-style="normal" font-weight="normal" text-decoration="none" x="0" y="240">UNREGISTERED</text><text fill="#eeeeee" stroke="none" font-family="Arial" font-size="24px" font-style="normal" font-weight="normal" text-decoration="none" x="0" y="270">UNREGISTERED</text><text fill="#eeeeee" stroke="none" font-family="Arial" font-size="24px" font-style="normal" font-weight="normal" text-decoration="none" x="0" y="300">UNREGISTERED</text><text fill="#eeeeee" stroke="none" font-family="Arial" font-size="24px" font-style="normal" font-weight="normal" text-decoration="none" x="200" y="0">UNREGISTERED</text><text fill="#eeeeee" stroke="none" font-family="Arial" font-size="24px" font-style="normal" font-weight="normal" text-decoration="none" x="200" y="30">UNREGISTERED</text><text fill="#eeeeee" stroke="none" font-family="Arial" font-size="24px" font-style="normal" font-weight="normal" text-decoration="none" x="200" y="60">UNREGISTERED</text><text fill="#eeeeee" stroke="none" font-family="Arial" font-size="24px" font-style="normal" font-weight="normal" text-decoration="none" x="200" y="90">UNREGISTERED</text><text fill="#eeeeee" stroke="none" font-family="Arial" font-size="24px" font-style="normal" font-weight="normal" text-decoration="none" x="200" y="120">UNREGISTERED</text><text fill="#eeeeee" stroke="none" font-family="Arial" font-size="24px" font-style="normal" font-weight="normal" text-decoration="none" x="200" y="150">UNREGISTERED</text><text fill="#eeeeee" stroke="none" font-family="Arial" font-size="24px" font-style="normal" font-weight="normal" text-decoration="none" x="200" y="180">UNREGISTERED</text><text fill="#eeeeee" stroke="none" font-family="Arial" font-size="24px" font-style="normal" font-weight="normal" text-decoration="none" x="200" y="210">UNREGISTERED</text><text fill="#eeeeee" stroke="none" font-family="Arial" font-size="24px" font-style="normal" font-weight="normal" text-decoration="none" x="200" y="240">UNREGISTERED</text><text fill="#eeeeee" stroke="none" font-family="Arial" font-size="24px" font-style="normal" font-weight="normal" text-decoration="none" x="200" y="270">UNREGISTERED</text><text fill="#eeeeee" stroke="none" font-family="Arial" font-size="24px" font-style="normal" font-weight="normal" text-decoration="none" x="200" y="300">UNREGISTERED</text><text fill="#eeeeee" stroke="none" font-family="Arial" font-size="24px" font-style="normal" font-weight="normal" text-decoration="none" x="400" y="0">UNREGISTERED</text><text fill="#eeeeee" stroke="none" font-family="Arial" font-size="24px" font-style="normal" font-weight="normal" text-decoration="none" x="400" y="30">UNREGISTERED</text><text fill="#eeeeee" stroke="none" font-family="Arial" font-size="24px" font-style="normal" font-weight="normal" text-decoration="none" x="400" y="60">UNREGISTERED</text><text fill="#eeeeee" stroke="none" font-family="Arial" font-size="24px" font-style="normal" font-weight="normal" text-decoration="none" x="400" y="90">UNREGISTERED</text><text fill="#eeeeee" stroke="none" font-family="Arial" font-size="24px" font-style="normal" font-weight="normal" text-decoration="none" x="400" y="120">UNREGISTERED</text><text fill="#eeeeee" stroke="none" font-family="Arial" font-size="24px" font-style="normal" font-weight="normal" text-decoration="none" x="400" y="150">UNREGISTERED</text><text fill="#eeeeee" stroke="none" font-family="Arial" font-size="24px" font-style="normal" font-weight="normal" text-decoration="none" x="400" y="180">UNREGISTERED</text><text fill="#eeeeee" stroke="none" font-family="Arial" font-size="24px" font-style="normal" font-weight="normal" text-decoration="none" x="400" y="210">UNREGISTERED</text><text fill="#eeeeee" stroke="none" font-family="Arial" font-size="24px" font-style="normal" font-weight="normal" text-decoration="none" x="400" y="240">UNREGISTERED</text><text fill="#eeeeee" stroke="none" font-family="Arial" font-size="24px" font-style="normal" font-weight="normal" text-decoration="none" x="400" y="270">UNREGISTERED</text><text fill="#eeeeee" stroke="none" font-family="Arial" font-size="24px" font-style="normal" font-weight="normal" text-decoration="none" x="400" y="300">UNREGISTERED</text><text fill="#eeeeee" stroke="none" font-family="Arial" font-size="24px" font-style="normal" font-weight="normal" text-decoration="none" x="600" y="0">UNREGISTERED</text><text fill="#eeeeee" stroke="none" font-family="Arial" font-size="24px" font-style="normal" font-weight="normal" text-decoration="none" x="600" y="30">UNREGISTERED</text><text fill="#eeeeee" stroke="none" font-family="Arial" font-size="24px" font-style="normal" font-weight="normal" text-decoration="none" x="600" y="60">UNREGISTERED</text><text fill="#eeeeee" stroke="none" font-family="Arial" font-size="24px" font-style="normal" font-weight="normal" text-decoration="none" x="600" y="90">UNREGISTERED</text><text fill="#eeeeee" stroke="none" font-family="Arial" font-size="24px" font-style="normal" font-weight="normal" text-decoration="none" x="600" y="120">UNREGISTERED</text><text fill="#eeeeee" stroke="none" font-family="Arial" font-size="24px" font-style="normal" font-weight="normal" text-decoration="none" x="600" y="150">UNREGISTERED</text><text fill="#eeeeee" stroke="none" font-family="Arial" font-size="24px" font-style="normal" font-weight="normal" text-decoration="none" x="600" y="180">UNREGISTERED</text><text fill="#eeeeee" stroke="none" font-family="Arial" font-size="24px" font-style="normal" font-weight="normal" text-decoration="none" x="600" y="210">UNREGISTERED</text><text fill="#eeeeee" stroke="none" font-family="Arial" font-size="24px" font-style="normal" font-weight="normal" text-decoration="none" x="600" y="240">UNREGISTERED</text><text fill="#eeeeee" stroke="none" font-family="Arial" font-size="24px" font-style="normal" font-weight="normal" text-decoration="none" x="600" y="270">UNREGISTERED</text><text fill="#eeeeee" stroke="none" font-family="Arial" font-size="24px" font-style="normal" font-weight="normal" text-decoration="none" x="600" y="300">UNREGISTERED</text><text fill="#eeeeee" stroke="none" font-family="Arial" font-size="24px" font-style="normal" font-weight="normal" text-decoration="none" x="800" y="0">UNREGISTERED</text><text fill="#eeeeee" stroke="none" font-family="Arial" font-size="24px" font-style="normal" font-weight="normal" text-decoration="none" x="800" y="30">UNREGISTERED</text><text fill="#eeeeee" stroke="none" font-family="Arial" font-size="24px" font-style="normal" font-weight="normal" text-decoration="none" x="800" y="60">UNREGISTERED</text><text fill="#eeeeee" stroke="none" font-family="Arial" font-size="24px" font-style="normal" font-weight="normal" text-decoration="none" x="800" y="90">UNREGISTERED</text><text fill="#eeeeee" stroke="none" font-family="Arial" font-size="24px" font-style="normal" font-weight="normal" text-decoration="none" x="800" y="120">UNREGISTERED</text><text fill="#eeeeee" stroke="none" font-family="Arial" font-size="24px" font-style="normal" font-weight="normal" text-decoration="none" x="800" y="150">UNREGISTERED</text><text fill="#eeeeee" stroke="none" font-family="Arial" font-size="24px" font-style="normal" font-weight="normal" text-decoration="none" x="800" y="180">UNREGISTERED</text><text fill="#eeeeee" stroke="none" font-family="Arial" font-size="24px" font-style="normal" font-weight="normal" text-decoration="none" x="800" y="210">UNREGISTERED</text><text fill="#eeeeee" stroke="none" font-family="Arial" font-size="24px" font-style="normal" font-weight="normal" text-decoration="none" x="800" y="240">UNREGISTERED</text><text fill="#eeeeee" stroke="none" font-family="Arial" font-size="24px" font-style="normal" font-weight="normal" text-decoration="none" x="800" y="270">UNREGISTERED</text><text fill="#eeeeee" stroke="none" font-family="Arial" font-size="24px" font-style="normal" font-weight="normal" text-decoration="none" x="800" y="300">UNREGISTERED</text><g transform="translate(-62,-126) scale(1,1)"><path fill="#C0C0C0" stroke="none" d="M 193 263 L 290.36083984375 263 Q 300.36083984375 263 300.36083984375 273 L 300.36083984375 293 Q 300.36083984375 303 290.36083984375 303 L 193 303 Q 183 303 183 293 L 183 273 Q 183 263 193 263 Z" opacity="0.2"/></g><g transform="translate(-62,-126) scale(1,1)"><path fill="#ffffff" stroke="none" d="M 186 256 L 283.36083984375 256 Q 293.36083984375 256 293.36083984375 266 L 293.36083984375 286 Q 293.36083984375 296 283.36083984375 296 L 186 296 Q 176 296 176 286 L 176 266 Q 176 256 186 256 Z"/></g><g transform="translate(-62,-126) scale(1,1)"><path fill="none" stroke="#000000" d="M 186 256 L 283.36083984375 256 Q 293.36083984375 256 293.36083984375 266 L 293.36083984375 286 Q 293.36083984375 296 283.36083984375 296 L 186 296 Q 176 296 176 286 L 176 266 Q 176 256 186 256 Z" stroke-miterlimit="10"/></g><g transform="translate(-62,-126) scale(1,1)"><g><path fill="none" stroke="none"/><text fill="#000000" stroke="none" font-family="Arial" font-size="13px" font-style="normal" font-weight="bold" text-decoration="none" x="180.5" y="274">Enter trackingRef</text></g></g><g transform="translate(-62,-126) scale(1,1)"><path fill="#C0C0C0" stroke="none" d="M 79 280.5 C 79 275.2532944 83.2532944 271 88.5 271 C 93.7467056 271 98 275.2532944 98 280.5 C 98 285.7467056 93.7467056 290 88.5 290 C 83.2532944 290 79 285.7467056 79 280.5 Z" opacity="0.2"/></g><g transform="translate(-62,-126) scale(1,1)"><path fill="#000000" stroke="none" d="M 72 273.5 C 72 268.2532944 76.2532944 264 81.5 264 C 86.7467056 264 91 268.2532944 91 273.5 C 91 278.7467056 86.7467056 283 81.5 283 C 76.2532944 283 72 278.7467056 72 273.5 Z"/></g><g transform="translate(-62,-126) scale(1,1)"><path fill="none" stroke="#000000" d="M 92 273 L 175 275" stroke-miterlimit="10"/></g><g transform="translate(-62,-126) scale(1,1)"><path fill="none" stroke="#000000" d="M 164.73886953710684 278.96348352128354 L 175 275 L 164.94167899202768 270.5468911420691" stroke-miterlimit="10"/></g><g transform="translate(-62,-126) scale(1,1)"><g><path fill="none" stroke="none"/><text fill="#000000" stroke="none" font-family="Arial" font-size="13px" font-style="normal" font-weight="normal" text-decoration="none" x="116.5" y="264">Client</text></g></g><g transform="translate(-62,-126) scale(1,1)"><path fill="#C0C0C0" stroke="none" d="M 425 263 L 486.97265625 263 Q 496.97265625 263 496.97265625 273 L 496.97265625 293 Q 496.97265625 303 486.97265625 303 L 425 303 Q 415 303 415 293 L 415 273 Q 415 263 425 263 Z" opacity="0.2"/></g><g transform="translate(-62,-126) scale(1,1)"><path fill="#ffffff" stroke="none" d="M 418 256 L 479.97265625 256 Q 489.97265625 256 489.97265625 266 L 489.97265625 286 Q 489.97265625 296 479.97265625 296 L 418 296 Q 408 296 408 286 L 408 266 Q 408 256 418 256 Z"/></g><g transform="translate(-62,-126) scale(1,1)"><path fill="none" stroke="#000000" d="M 418 256 L 479.97265625 256 Q 489.97265625 256 489.97265625 266 L 489.97265625 286 Q 489.97265625 296 479.97265625 296 L 418 296 Q 408 296 408 286 L 408 266 Q 408 256 418 256 Z" stroke-miterlimit="10"/></g><g transform="translate(-62,-126) scale(1,1)"><g><path fill="none" stroke="none"/><text fill="#000000" stroke="none" font-family="Arial" font-size="13px" font-style="normal" font-weight="bold" text-decoration="none" x="412.5" y="274">fetch parcel</text></g></g><g transform="translate(-62,-126) scale(1,1)"><path fill="#ffffff" stroke="none" d="M 384 136 L 509 136 L 519 146 L 519 184 L 384 184 L 384 136"/></g><g transform="translate(-62,-126) scale(1,1)"><path fill="none" stroke="#000000" d="M 384 136 L 509 136 L 519 146 L 519 184 L 384 184 L 384 136 L 384 136" stroke-miterlimit="10"/></g><g transform="translate(-62,-126) scale(1,1)"><path fill="none" stroke="#000000" d="M 509 136 L 509 146 L 519 146 L 509 136" stroke-miterlimit="10"/></g><g transform="translate(-62,-126) scale(1,1)"><g><path fill="none" stroke="none"/><text fill="#000000" stroke="none" font-family="Arial" font-size="13px" font-style="normal" font-weight="normal" text-decoration="none" x="389" y="151">ParcelService → DB</text></g></g><g transform="translate(-62,-126) scale(1,1)"><path fill="none" stroke="#000000" d="M 449 255 L 451 186" stroke-miterlimit="10" stroke-dasharray="3"/></g><g transform="translate(-62,-126) scale(1,1)"><path fill="none" stroke="#000000" d="M 294 276 L 407 276" stroke-miterlimit="10"/></g><g transform="translate(-62,-126) scale(1,1)"><path fill="none" stroke="#000000" d="M 396.83732514237585 280.209517756016 L 407 276 L 396.83732514237585 271.790482243984" stroke-miterlimit="10"/></g><g transform="translate(-62,-126) scale(1,1)"><g><path fill="none" stroke="none"/><text fill="#000000" stroke="none" font-family="Arial" font-size="13px" font-style="normal" font-weight="normal" text-decoration="none" x="313.5" y="266">APIGateway</text></g></g><g transform="translate(-62,-126) scale(1,1)"><path fill="#C0C0C0" stroke="none" d="M 617 263 L 725.208984375 263 Q 735.208984375 263 735.208984375 273 L 735.208984375 293 Q 735.208984375 303 725.208984375 303 L 617 303 Q 607 303 607 293 L 607 273 Q 607 263 617 263 Z" opacity="0.2"/></g><g transform="translate(-62,-126) scale(1,1)"><path fill="#ffffff" stroke="none" d="M 610 256 L 718.208984375 256 Q 728.208984375 256 728.208984375 266 L 728.208984375 286 Q 728.208984375 296 718.208984375 296 L 610 296 Q 600 296 600 286 L 600 266 Q 600 256 610 256 Z"/></g><g transform="translate(-62,-126) scale(1,1)"><path fill="none" stroke="#000000" d="M 610 256 L 718.208984375 256 Q 728.208984375 256 728.208984375 266 L 728.208984375 286 Q 728.208984375 296 718.208984375 296 L 610 296 Q 600 296 600 286 L 600 266 Q 600 256 610 256 Z" stroke-miterlimit="10"/></g><g transform="translate(-62,-126) scale(1,1)"><g><path fill="none" stroke="none"/><text fill="#000000" stroke="none" font-family="Arial" font-size="13px" font-style="normal" font-weight="bold" text-decoration="none" x="604.5" y="274">Get timeline events</text></g></g><g transform="translate(-62,-126) scale(1,1)"><path fill="#ffffff" stroke="none" d="M 592 136 L 710.791015625 136 L 720.791015625 146 L 720.791015625 184 L 592 184 L 592 136"/></g><g transform="translate(-62,-126) scale(1,1)"><path fill="none" stroke="#000000" d="M 592 136 L 710.791015625 136 L 720.791015625 146 L 720.791015625 184 L 592 184 L 592 136 L 592 136" stroke-miterlimit="10"/></g><g transform="translate(-62,-126) scale(1,1)"><path fill="none" stroke="#000000" d="M 710.791015625 136 L 710.791015625 146 L 720.791015625 146 L 710.791015625 136" stroke-miterlimit="10"/></g><g transform="translate(-62,-126) scale(1,1)"><g><path fill="none" stroke="none"/><text fill="#000000" stroke="none" font-family="Arial" font-size="13px" font-style="normal" font-weight="normal" text-decoration="none" x="597" y="151">ScanService → DB</text></g></g><g transform="translate(-62,-126) scale(1,1)"><path fill="none" stroke="#000000" d="M 663 255 L 658 186" stroke-miterlimit="10" stroke-dasharray="3"/></g><g transform="translate(-62,-126) scale(1,1)"><path fill="none" stroke="#000000" d="M 491 276 L 599 276" stroke-miterlimit="10"/></g><g transform="translate(-62,-126) scale(1,1)"><path fill="none" stroke="#000000" d="M 588.8373251423759 280.209517756016 L 599 276 L 588.8373251423758 271.790482243984" stroke-miterlimit="10"/></g><g transform="translate(-62,-126) scale(1,1)"><path fill="#C0C0C0" stroke="none" d="M 833 263 L 975.8798828125 263 Q 985.8798828125 263 985.8798828125 273 L 985.8798828125 293 Q 985.8798828125 303 975.8798828125 303 L 833 303 Q 823 303 823 293 L 823 273 Q 823 263 833 263 Z" opacity="0.2"/></g><g transform="translate(-62,-126) scale(1,1)"><path fill="#ffffff" stroke="none" d="M 826 256 L 968.8798828125 256 Q 978.8798828125 256 978.8798828125 266 L 978.8798828125 286 Q 978.8798828125 296 968.8798828125 296 L 826 296 Q 816 296 816 286 L 816 266 Q 816 256 826 256 Z"/></g><g transform="translate(-62,-126) scale(1,1)"><path fill="none" stroke="#000000" d="M 826 256 L 968.8798828125 256 Q 978.8798828125 256 978.8798828125 266 L 978.8798828125 286 Q 978.8798828125 296 968.8798828125 296 L 826 296 Q 816 296 816 286 L 816 266 Q 816 256 826 256 Z" stroke-miterlimit="10"/></g><g transform="translate(-62,-126) scale(1,1)"><g><path fill="none" stroke="none"/><text fill="#000000" stroke="none" font-family="Arial" font-size="13px" font-style="normal" font-weight="bold" text-decoration="none" x="820.5" y="274">Display status &amp; timeline</text></g></g><g transform="translate(-62,-126) scale(1,1)"><path fill="none" stroke="#000000" d="M 729 276 L 815 276" stroke-miterlimit="10"/></g><g transform="translate(-62,-126) scale(1,1)"><path fill="none" stroke="#000000" d="M 804.8373251423759 280.209517756016 L 815 276 L 804.8373251423758 271.790482243984" stroke-miterlimit="10"/></g><g transform="translate(-62,-126) scale(1,1)"><path fill="#C0C0C0" stroke="none" d="M 887 399.5 L 915.5 383 L 943 399.5 L 915.5 415 L 887 399.5" opacity="0.2"/></g><g transform="translate(-62,-126) scale(1,1)"><path fill="#ffffff" stroke="none" d="M 880 392 L 908 376 L 936 392 L 908 408 L 880 392"/></g><g transform="translate(-62,-126) scale(1,1)"><path fill="none" stroke="#000000" d="M 880 392 L 908 376 L 936 392 L 908 408 L 880 392 L 880 392" stroke-miterlimit="10"/></g><g transform="translate(-62,-126) scale(1,1)"><path fill="#C0C0C0" stroke="none" d="M 657 375 L 765.92626953125 375 Q 775.92626953125 375 775.92626953125 385 L 775.92626953125 405 Q 775.92626953125 415 765.92626953125 415 L 657 415 Q 647 415 647 405 L 647 385 Q 647 375 657 375 Z" opacity="0.2"/></g><g transform="translate(-62,-126) scale(1,1)"><path fill="#ffffff" stroke="none" d="M 650 368 L 758.92626953125 368 Q 768.92626953125 368 768.92626953125 378 L 768.92626953125 398 Q 768.92626953125 408 758.92626953125 408 L 650 408 Q 640 408 640 398 L 640 378 Q 640 368 650 368 Z"/></g><g transform="translate(-62,-126) scale(1,1)"><path fill="none" stroke="#000000" d="M 650 368 L 758.92626953125 368 Q 768.92626953125 368 768.92626953125 378 L 768.92626953125 398 Q 768.92626953125 408 758.92626953125 408 L 650 408 Q 640 408 640 398 L 640 378 Q 640 368 650 368 Z" stroke-miterlimit="10"/></g><g transform="translate(-62,-126) scale(1,1)"><g><path fill="none" stroke="none"/><text fill="#000000" stroke="none" font-family="Arial" font-size="13px" font-style="normal" font-weight="bold" text-decoration="none" x="644.5" y="386">create subscription</text></g></g><g transform="translate(-62,-126) scale(1,1)"><path fill="#C0C0C0" stroke="none" d="M 543 395.5 C 543 388.59644 548.59644 383 555.5 383 C 562.40356 383 568 388.59644 568 395.5 C 568 402.40356 562.40356 408 555.5 408 C 548.59644 408 543 402.40356 543 395.5 Z" opacity="0.2"/></g><g transform="translate(-62,-126) scale(1,1)"><path fill="none" stroke="#000000" d="M 536 388.5 C 536 381.59644 541.59644 376 548.5 376 C 555.40356 376 561 381.59644 561 388.5 C 561 395.40356 555.40356 401 548.5 401 C 541.59644 401 536 395.40356 536 388.5 Z" stroke-miterlimit="10"/></g><g transform="translate(-62,-126) scale(1,1)"><path fill="#000000" stroke="none" d="M 541 388.5 C 541 384.357864 544.357864 381 548.5 381 C 552.642136 381 556 384.357864 556 388.5 C 556 392.642136 552.642136 396 548.5 396 C 544.357864 396 541 392.642136 541 388.5 Z"/></g><g transform="translate(-62,-126) scale(1,1)"><path fill="none" stroke="#000000" d="M 879 391 L 770 389" stroke-miterlimit="10"/></g><g transform="translate(-62,-126) scale(1,1)"><path fill="none" stroke="#000000" d="M 780.238190404562 384.9776303949121 L 770 389 L 780.0837386863411 393.39524903794853" stroke-miterlimit="10"/></g><g transform="translate(-62,-126) scale(1,1)"><g><path fill="none" stroke="none"/><text fill="#000000" stroke="none" font-family="Arial" font-size="13px" font-style="normal" font-weight="normal" text-decoration="none" x="917.5" y="418">subscribe?</text></g></g><g transform="translate(-62,-126) scale(1,1)"><g><path fill="none" stroke="none"/><text fill="#000000" stroke="none" font-family="Arial" font-size="13px" font-style="normal" font-weight="normal" text-decoration="none" x="798.5" y="401.5">«yes»</text></g></g><g transform="translate(-62,-126) scale(1,1)"><path fill="none" stroke="#000000" d="M 639 388 L 562 388" stroke-miterlimit="10"/></g><g transform="translate(-62,-126) scale(1,1)"><path fill="none" stroke="#000000" d="M 572.1626748576241 383.790482243984 L 562 388 L 572.1626748576241 392.209517756016" stroke-miterlimit="10"/></g><g transform="translate(-62,-126) scale(1,1)"><path fill="none" stroke="#000000" d="M 899 297 L 906 375" stroke-miterlimit="10"/></g><g transform="translate(-62,-126) scale(1,1)"><path fill="none" stroke="#000000" d="M 900.8989478386534 365.2542693015238 L 906 375 L 909.284283690036 364.5017391610151" stroke-miterlimit="10"/></g></g></svg>