<svg version="1.1" xmlns="http://www.w3.org/2000/svg" xmlns:xlink="http://www.w3.org/1999/xlink" width="797" height="316"><defs/><g><text fill="#eeeeee" stroke="none" font-family="Arial" font-size="24px" font-style="normal" font-weight="normal" text-decoration="none" x="0" y="0">UNREGISTERED</text><text fill="#eeeeee" stroke="none" font-family="Arial" font-size="24px" font-style="normal" font-weight="normal" text-decoration="none" x="0" y="30">UNREGISTERED</text><text fill="#eeeeee" stroke="none" font-family="Arial" font-size="24px" font-style="normal" font-weight="normal" text-decoration="none" x="0" y="60">UNREGISTERED</text><text fill="#eeeeee" stroke="none" font-family="Arial" font-size="24px" font-style="normal" font-weight="normal" text-decoration="none" x="0" y="90">UNREGISTERED</text><text fill="#eeeeee" stroke="none" font-family="Arial" font-size="24px" font-style="normal" font-weight="normal" text-decoration="none" x="0" y="120">UNREGISTERED</text><text fill="#eeeeee" stroke="none" font-family="Arial" font-size="24px" font-style="normal" font-weight="normal" text-decoration="none" x="0" y="150">UNREGISTERED</text><text fill="#eeeeee" stroke="none" font-family="Arial" font-size="24px" font-style="normal" font-weight="normal" text-decoration="none" x="0" y="180">UNREGISTERED</text><text fill="#eeeeee" stroke="none" font-family="Arial" font-size="24px" font-style="normal" font-weight="normal" text-decoration="none" x="0" y="210">UNREGISTERED</text><text fill="#eeeeee" stroke="none" font-family="Arial" font-size="24px" font-style="normal" font-weight="normal" text-decoration="none" x="0" y="240">UNREGISTERED</text><text fill="#eeeeee" stroke="none" font-family="Arial" font-size="24px" font-style="normal" font-weight="normal" text-decoration="none" x="0" y="270">UNREGISTERED</text><text fill="#eeeeee" stroke="none" font-family="Arial" font-size="24px" font-style="normal" font-weight="normal" text-decoration="none" x="0" y="300">UNREGISTERED</text><text fill="#eeeeee" stroke="none" font-family="Arial" font-size="24px" font-style="normal" font-weight="normal" text-decoration="none" x="200" y="0">UNREGISTERED</text><text fill="#eeeeee" stroke="none" font-family="Arial" font-size="24px" font-style="normal" font-weight="normal" text-decoration="none" x="200" y="30">UNREGISTERED</text><text fill="#eeeeee" stroke="none" font-family="Arial" font-size="24px" font-style="normal" font-weight="normal" text-decoration="none" x="200" y="60">UNREGISTERED</text><text fill="#eeeeee" stroke="none" font-family="Arial" font-size="24px" font-style="normal" font-weight="normal" text-decoration="none" x="200" y="90">UNREGISTERED</text><text fill="#eeeeee" stroke="none" font-family="Arial" font-size="24px" font-style="normal" font-weight="normal" text-decoration="none" x="200" y="120">UNREGISTERED</text><text fill="#eeeeee" stroke="none" font-family="Arial" font-size="24px" font-style="normal" font-weight="normal" text-decoration="none" x="200" y="150">UNREGISTERED</text><text fill="#eeeeee" stroke="none" font-family="Arial" font-size="24px" font-style="normal" font-weight="normal" text-decoration="none" x="200" y="180">UNREGISTERED</text><text fill="#eeeeee" stroke="none" font-family="Arial" font-size="24px" font-style="normal" font-weight="normal" text-decoration="none" x="200" y="210">UNREGISTERED</text><text fill="#eeeeee" stroke="none" font-family="Arial" font-size="24px" font-style="normal" font-weight="normal" text-decoration="none" x="200" y="240">UNREGISTERED</text><text fill="#eeeeee" stroke="none" font-family="Arial" font-size="24px" font-style="normal" font-weight="normal" text-decoration="none" x="200" y="270">UNREGISTERED</text><text fill="#eeeeee" stroke="none" font-family="Arial" font-size="24px" font-style="normal" font-weight="normal" text-decoration="none" x="200" y="300">UNREGISTERED</text><text fill="#eeeeee" stroke="none" font-family="Arial" font-size="24px" font-style="normal" font-weight="normal" text-decoration="none" x="400" y="0">UNREGISTERED</text><text fill="#eeeeee" stroke="none" font-family="Arial" font-size="24px" font-style="normal" font-weight="normal" text-decoration="none" x="400" y="30">UNREGISTERED</text><text fill="#eeeeee" stroke="none" font-family="Arial" font-size="24px" font-style="normal" font-weight="normal" text-decoration="none" x="400" y="60">UNREGISTERED</text><text fill="#eeeeee" stroke="none" font-family="Arial" font-size="24px" font-style="normal" font-weight="normal" text-decoration="none" x="400" y="90">UNREGISTERED</text><text fill="#eeeeee" stroke="none" font-family="Arial" font-size="24px" font-style="normal" font-weight="normal" text-decoration="none" x="400" y="120">UNREGISTERED</text><text fill="#eeeeee" stroke="none" font-family="Arial" font-size="24px" font-style="normal" font-weight="normal" text-decoration="none" x="400" y="150">UNREGISTERED</text><text fill="#eeeeee" stroke="none" font-family="Arial" font-size="24px" font-style="normal" font-weight="normal" text-decoration="none" x="400" y="180">UNREGISTERED</text><text fill="#eeeeee" stroke="none" font-family="Arial" font-size="24px" font-style="normal" font-weight="normal" text-decoration="none" x="400" y="210">UNREGISTERED</text><text fill="#eeeeee" stroke="none" font-family="Arial" font-size="24px" font-style="normal" font-weight="normal" text-decoration="none" x="400" y="240">UNREGISTERED</text><text fill="#eeeeee" stroke="none" font-family="Arial" font-size="24px" font-style="normal" font-weight="normal" text-decoration="none" x="400" y="270">UNREGISTERED</text><text fill="#eeeeee" stroke="none" font-family="Arial" font-size="24px" font-style="normal" font-weight="normal" text-decoration="none" x="400" y="300">UNREGISTERED</text><text fill="#eeeeee" stroke="none" font-family="Arial" font-size="24px" font-style="normal" font-weight="normal" text-decoration="none" x="600" y="0">UNREGISTERED</text><text fill="#eeeeee" stroke="none" font-family="Arial" font-size="24px" font-style="normal" font-weight="normal" text-decoration="none" x="600" y="30">UNREGISTERED</text><text fill="#eeeeee" stroke="none" font-family="Arial" font-size="24px" font-style="normal" font-weight="normal" text-decoration="none" x="600" y="60">UNREGISTERED</text><text fill="#eeeeee" stroke="none" font-family="Arial" font-size="24px" font-style="normal" font-weight="normal" text-decoration="none" x="600" y="90">UNREGISTERED</text><text fill="#eeeeee" stroke="none" font-family="Arial" font-size="24px" font-style="normal" font-weight="normal" text-decoration="none" x="600" y="120">UNREGISTERED</text><text fill="#eeeeee" stroke="none" font-family="Arial" font-size="24px" font-style="normal" font-weight="normal" text-decoration="none" x="600" y="150">UNREGISTERED</text><text fill="#eeeeee" stroke="none" font-family="Arial" font-size="24px" font-style="normal" font-weight="normal" text-decoration="none" x="600" y="180">UNREGISTERED</text><text fill="#eeeeee" stroke="none" font-family="Arial" font-size="24px" font-style="normal" font-weight="normal" text-decoration="none" x="600" y="210">UNREGISTERED</text><text fill="#eeeeee" stroke="none" font-family="Arial" font-size="24px" font-style="normal" font-weight="normal" text-decoration="none" x="600" y="240">UNREGISTERED</text><text fill="#eeeeee" stroke="none" font-family="Arial" font-size="24px" font-style="normal" font-weight="normal" text-decoration="none" x="600" y="270">UNREGISTERED</text><text fill="#eeeeee" stroke="none" font-family="Arial" font-size="24px" font-style="normal" font-weight="normal" text-decoration="none" x="600" y="300">UNREGISTERED</text><g transform="translate(-102,-118) scale(1,1)"><path fill="#C0C0C0" stroke="none" d="M 119 288.5 C 119 283.2532944 123.2532944 279 128.5 279 C 133.7467056 279 138 283.2532944 138 288.5 C 138 293.7467056 133.7467056 298 128.5 298 C 123.2532944 298 119 293.7467056 119 288.5 Z" opacity="0.2"/></g><g transform="translate(-102,-118) scale(1,1)"><path fill="#000000" stroke="none" d="M 112 281.5 C 112 276.2532944 116.2532944 272 121.5 272 C 126.7467056 272 131 276.2532944 131 281.5 C 131 286.7467056 126.7467056 291 121.5 291 C 116.2532944 291 112 286.7467056 112 281.5 Z"/></g><g transform="translate(-102,-118) scale(1,1)"><path fill="#C0C0C0" stroke="none" d="M 289 271 L 366.841796875 271 Q 376.841796875 271 376.841796875 281 L 376.841796875 301 Q 376.841796875 311 366.841796875 311 L 289 311 Q 279 311 279 301 L 279 281 Q 279 271 289 271 Z" opacity="0.2"/></g><g transform="translate(-102,-118) scale(1,1)"><path fill="#ffffff" stroke="none" d="M 282 264 L 359.841796875 264 Q 369.841796875 264 369.841796875 274 L 369.841796875 294 Q 369.841796875 304 359.841796875 304 L 282 304 Q 272 304 272 294 L 272 274 Q 272 264 282 264 Z"/></g><g transform="translate(-102,-118) scale(1,1)"><path fill="none" stroke="#000000" d="M 282 264 L 359.841796875 264 Q 369.841796875 264 369.841796875 274 L 369.841796875 294 Q 369.841796875 304 359.841796875 304 L 282 304 Q 272 304 272 294 L 272 274 Q 272 264 282 264 Z" stroke-miterlimit="10"/></g><g transform="translate(-102,-118) scale(1,1)"><g><path fill="none" stroke="none"/><text fill="#000000" stroke="none" font-family="Arial" font-size="13px" font-style="normal" font-weight="bold" text-decoration="none" x="276.5" y="282">Fill tariff fields</text></g></g><g transform="translate(-102,-118) scale(1,1)"><path fill="none" stroke="#000000" d="M 132 281 L 271 283" stroke-miterlimit="10"/></g><g transform="translate(-102,-118) scale(1,1)"><path fill="none" stroke="#000000" d="M 260.77781462928317 287.0628716748997 L 271 283 L 260.89893929340786 278.6447075182325" stroke-miterlimit="10"/></g><g transform="translate(-102,-118) scale(1,1)"><g><path fill="none" stroke="none"/><text fill="#000000" stroke="none" font-family="Arial" font-size="13px" font-style="normal" font-weight="normal" text-decoration="none" x="182.5" y="272">Admin</text></g></g><g transform="translate(-102,-118) scale(1,1)"><path fill="#C0C0C0" stroke="none" d="M 471 291.5 L 499.5 271 L 527 291.5 L 499.5 311 L 471 291.5" opacity="0.2"/></g><g transform="translate(-102,-118) scale(1,1)"><path fill="#ffffff" stroke="none" d="M 464 284 L 492 264 L 520 284 L 492 304 L 464 284"/></g><g transform="translate(-102,-118) scale(1,1)"><path fill="none" stroke="#000000" d="M 464 284 L 492 264 L 520 284 L 492 304 L 464 284 L 464 284" stroke-miterlimit="10"/></g><g transform="translate(-102,-118) scale(1,1)"><path fill="#C0C0C0" stroke="none" d="M 457 391 L 550.736328125 391 Q 560.736328125 391 560.736328125 401 L 560.736328125 421 Q 560.736328125 431 550.736328125 431 L 457 431 Q 447 431 447 421 L 447 401 Q 447 391 457 391 Z" opacity="0.2"/></g><g transform="translate(-102,-118) scale(1,1)"><path fill="#ffffff" stroke="none" d="M 450 384 L 543.736328125 384 Q 553.736328125 384 553.736328125 394 L 553.736328125 414 Q 553.736328125 424 543.736328125 424 L 450 424 Q 440 424 440 414 L 440 394 Q 440 384 450 384 Z"/></g><g transform="translate(-102,-118) scale(1,1)"><path fill="none" stroke="#000000" d="M 450 384 L 543.736328125 384 Q 553.736328125 384 553.736328125 394 L 553.736328125 414 Q 553.736328125 424 543.736328125 424 L 450 424 Q 440 424 440 414 L 440 394 Q 440 384 450 384 Z" stroke-miterlimit="10"/></g><g transform="translate(-102,-118) scale(1,1)"><g><path fill="none" stroke="none"/><text fill="#000000" stroke="none" font-family="Arial" font-size="13px" font-style="normal" font-weight="bold" text-decoration="none" x="444.5" y="402">POST PUT tariffs</text></g></g><g transform="translate(-102,-118) scale(1,1)"><path fill="#C0C0C0" stroke="none" d="M 465 135 L 529.8544921875 135 Q 539.8544921875 135 539.8544921875 145 L 539.8544921875 165 Q 539.8544921875 175 529.8544921875 175 L 465 175 Q 455 175 455 165 L 455 145 Q 455 135 465 135 Z" opacity="0.2"/></g><g transform="translate(-102,-118) scale(1,1)"><path fill="#ffffff" stroke="none" d="M 458 128 L 522.8544921875 128 Q 532.8544921875 128 532.8544921875 138 L 532.8544921875 158 Q 532.8544921875 168 522.8544921875 168 L 458 168 Q 448 168 448 158 L 448 138 Q 448 128 458 128 Z"/></g><g transform="translate(-102,-118) scale(1,1)"><path fill="none" stroke="#000000" d="M 458 128 L 522.8544921875 128 Q 532.8544921875 128 532.8544921875 138 L 532.8544921875 158 Q 532.8544921875 168 522.8544921875 168 L 458 168 Q 448 168 448 158 L 448 138 Q 448 128 458 128 Z" stroke-miterlimit="10"/></g><g transform="translate(-102,-118) scale(1,1)"><g><path fill="none" stroke="none"/><text fill="#000000" stroke="none" font-family="Arial" font-size="13px" font-style="normal" font-weight="bold" text-decoration="none" x="452.5" y="146">Show errors</text></g></g><g transform="translate(-102,-118) scale(1,1)"><path fill="none" stroke="#000000" d="M 492 263 L 490 169" stroke-miterlimit="10"/></g><g transform="translate(-102,-118) scale(1,1)"><path fill="none" stroke="#000000" d="M 494.4247434676047 179.0708314078774 L 490 169 L 486.0076129302576 179.2499192916507" stroke-miterlimit="10"/></g><g transform="translate(-102,-118) scale(1,1)"><g><path fill="none" stroke="none"/><text fill="#000000" stroke="none" font-family="Arial" font-size="13px" font-style="normal" font-weight="normal" text-decoration="none" x="526.5" y="298">Validate data</text></g></g><g transform="translate(-102,-118) scale(1,1)"><g><path fill="none" stroke="none"/><text fill="#000000" stroke="none" font-family="Arial" font-size="13px" font-style="normal" font-weight="normal" text-decoration="none" x="494.5" y="217">«invalid»</text></g></g><g transform="translate(-102,-118) scale(1,1)"><path fill="none" stroke="#000000" d="M 371 284 L 463 284" stroke-miterlimit="10"/></g><g transform="translate(-102,-118) scale(1,1)"><path fill="none" stroke="#000000" d="M 452.83732514237585 288.209517756016 L 463 284 L 452.83732514237585 279.790482243984" stroke-miterlimit="10"/></g><g transform="translate(-102,-118) scale(1,1)"><path fill="none" stroke="#000000" d="M 493 305 L 495 383" stroke-miterlimit="10"/></g><g transform="translate(-102,-118) scale(1,1)"><path fill="none" stroke="#000000" d="M 490.5313695737947 372.94856517138015 L 495 383 L 498.9476388509854 372.73276339504196" stroke-miterlimit="10"/></g><g transform="translate(-102,-118) scale(1,1)"><g><path fill="none" stroke="none"/><text fill="#000000" stroke="none" font-family="Arial" font-size="13px" font-style="normal" font-weight="normal" text-decoration="none" x="494.5" y="355">«valid»</text></g></g><g transform="translate(-102,-118) scale(1,1)"><path fill="none" stroke="#000000" d="M 464 169 L 346 263" stroke-miterlimit="10"/></g><g transform="translate(-102,-118) scale(1,1)"><path fill="none" stroke="#000000" d="M 351.3259891007943 253.37535246888385 L 346 263 L 356.5716965454799 259.9603894739147" stroke-miterlimit="10"/></g><g transform="translate(-102,-118) scale(1,1)"><path fill="#C0C0C0" stroke="none" d="M 697 391 L 748.86083984375 391 Q 758.86083984375 391 758.86083984375 401 L 758.86083984375 421 Q 758.86083984375 431 748.86083984375 431 L 697 431 Q 687 431 687 421 L 687 401 Q 687 391 697 391 Z" opacity="0.2"/></g><g transform="translate(-102,-118) scale(1,1)"><path fill="#ffffff" stroke="none" d="M 690 384 L 741.86083984375 384 Q 751.86083984375 384 751.86083984375 394 L 751.86083984375 414 Q 751.86083984375 424 741.86083984375 424 L 690 424 Q 680 424 680 414 L 680 394 Q 680 384 690 384 Z"/></g><g transform="translate(-102,-118) scale(1,1)"><path fill="none" stroke="#000000" d="M 690 384 L 741.86083984375 384 Q 751.86083984375 384 751.86083984375 394 L 751.86083984375 414 Q 751.86083984375 424 741.86083984375 424 L 690 424 Q 680 424 680 414 L 680 394 Q 680 384 690 384 Z" stroke-miterlimit="10"/></g><g transform="translate(-102,-118) scale(1,1)"><g><path fill="none" stroke="none"/><text fill="#000000" stroke="none" font-family="Arial" font-size="13px" font-style="normal" font-weight="bold" text-decoration="none" x="684.5" y="402">Save tariff</text></g></g><g transform="translate(-102,-118) scale(1,1)"><path fill="none" stroke="#000000" d="M 555 404 L 679 404" stroke-miterlimit="10"/></g><g transform="translate(-102,-118) scale(1,1)"><path fill="none" stroke="#000000" d="M 668.8373251423759 408.209517756016 L 679 404 L 668.8373251423758 399.790482243984" stroke-miterlimit="10"/></g><g transform="translate(-102,-118) scale(1,1)"><g><path fill="none" stroke="none"/><text fill="#000000" stroke="none" font-family="Arial" font-size="13px" font-style="normal" font-weight="normal" text-decoration="none" x="582.5" y="395">TariffEngine</text></g></g><g transform="translate(-102,-118) scale(1,1)"><path fill="#C0C0C0" stroke="none" d="M 871 411.5 C 871 404.59644 876.59644 399 883.5 399 C 890.40356 399 896 404.59644 896 411.5 C 896 418.40356 890.40356 424 883.5 424 C 876.59644 424 871 418.40356 871 411.5 Z" opacity="0.2"/></g><g transform="translate(-102,-118) scale(1,1)"><path fill="none" stroke="#000000" d="M 864 404.5 C 864 397.59644 869.59644 392 876.5 392 C 883.40356 392 889 397.59644 889 404.5 C 889 411.40356 883.40356 417 876.5 417 C 869.59644 417 864 411.40356 864 404.5 Z" stroke-miterlimit="10"/></g><g transform="translate(-102,-118) scale(1,1)"><path fill="#000000" stroke="none" d="M 869 404.5 C 869 400.357864 872.357864 397 876.5 397 C 880.642136 397 884 400.357864 884 404.5 C 884 408.642136 880.642136 412 876.5 412 C 872.357864 412 869 408.642136 869 404.5 Z"/></g><g transform="translate(-102,-118) scale(1,1)"><path fill="none" stroke="#000000" d="M 753 404 L 863 404" stroke-miterlimit="10"/></g><g transform="translate(-102,-118) scale(1,1)"><path fill="none" stroke="#000000" d="M 852.8373251423759 408.209517756016 L 863 404 L 852.8373251423758 399.790482243984" stroke-miterlimit="10"/></g></g></svg>