<svg version="1.1" xmlns="http://www.w3.org/2000/svg" xmlns:xlink="http://www.w3.org/1999/xlink" width="1183.6962890625" height="652"><defs/><g><text fill="#eeeeee" stroke="none" font-family="Arial" font-size="24px" font-style="normal" font-weight="normal" text-decoration="none" x="0" y="0">UNREGISTERED</text><text fill="#eeeeee" stroke="none" font-family="Arial" font-size="24px" font-style="normal" font-weight="normal" text-decoration="none" x="0" y="30">UNREGISTERED</text><text fill="#eeeeee" stroke="none" font-family="Arial" font-size="24px" font-style="normal" font-weight="normal" text-decoration="none" x="0" y="60">UNREGISTERED</text><text fill="#eeeeee" stroke="none" font-family="Arial" font-size="24px" font-style="normal" font-weight="normal" text-decoration="none" x="0" y="90">UNREGISTERED</text><text fill="#eeeeee" stroke="none" font-family="Arial" font-size="24px" font-style="normal" font-weight="normal" text-decoration="none" x="0" y="120">UNREGISTERED</text><text fill="#eeeeee" stroke="none" font-family="Arial" font-size="24px" font-style="normal" font-weight="normal" text-decoration="none" x="0" y="150">UNREGISTERED</text><text fill="#eeeeee" stroke="none" font-family="Arial" font-size="24px" font-style="normal" font-weight="normal" text-decoration="none" x="0" y="180">UNREGISTERED</text><text fill="#eeeeee" stroke="none" font-family="Arial" font-size="24px" font-style="normal" font-weight="normal" text-decoration="none" x="0" y="210">UNREGISTERED</text><text fill="#eeeeee" stroke="none" font-family="Arial" font-size="24px" font-style="normal" font-weight="normal" text-decoration="none" x="0" y="240">UNREGISTERED</text><text fill="#eeeeee" stroke="none" font-family="Arial" font-size="24px" font-style="normal" font-weight="normal" text-decoration="none" x="0" y="270">UNREGISTERED</text><text fill="#eeeeee" stroke="none" font-family="Arial" font-size="24px" font-style="normal" font-weight="normal" text-decoration="none" x="0" y="300">UNREGISTERED</text><text fill="#eeeeee" stroke="none" font-family="Arial" font-size="24px" font-style="normal" font-weight="normal" text-decoration="none" x="0" y="330">UNREGISTERED</text><text fill="#eeeeee" stroke="none" font-family="Arial" font-size="24px" font-style="normal" font-weight="normal" text-decoration="none" x="0" y="360">UNREGISTERED</text><text fill="#eeeeee" stroke="none" font-family="Arial" font-size="24px" font-style="normal" font-weight="normal" text-decoration="none" x="0" y="390">UNREGISTERED</text><text fill="#eeeeee" stroke="none" font-family="Arial" font-size="24px" font-style="normal" font-weight="normal" text-decoration="none" x="0" y="420">UNREGISTERED</text><text fill="#eeeeee" stroke="none" font-family="Arial" font-size="24px" font-style="normal" font-weight="normal" text-decoration="none" x="0" y="450">UNREGISTERED</text><text fill="#eeeeee" stroke="none" font-family="Arial" font-size="24px" font-style="normal" font-weight="normal" text-decoration="none" x="0" y="480">UNREGISTERED</text><text fill="#eeeeee" stroke="none" font-family="Arial" font-size="24px" font-style="normal" font-weight="normal" text-decoration="none" x="0" y="510">UNREGISTERED</text><text fill="#eeeeee" stroke="none" font-family="Arial" font-size="24px" font-style="normal" font-weight="normal" text-decoration="none" x="0" y="540">UNREGISTERED</text><text fill="#eeeeee" stroke="none" font-family="Arial" font-size="24px" font-style="normal" font-weight="normal" text-decoration="none" x="0" y="570">UNREGISTERED</text><text fill="#eeeeee" stroke="none" font-family="Arial" font-size="24px" font-style="normal" font-weight="normal" text-decoration="none" x="0" y="600">UNREGISTERED</text><text fill="#eeeeee" stroke="none" font-family="Arial" font-size="24px" font-style="normal" font-weight="normal" text-decoration="none" x="0" y="630">UNREGISTERED</text><text fill="#eeeeee" stroke="none" font-family="Arial" font-size="24px" font-style="normal" font-weight="normal" text-decoration="none" x="200" y="0">UNREGISTERED</text><text fill="#eeeeee" stroke="none" font-family="Arial" font-size="24px" font-style="normal" font-weight="normal" text-decoration="none" x="200" y="30">UNREGISTERED</text><text fill="#eeeeee" stroke="none" font-family="Arial" font-size="24px" font-style="normal" font-weight="normal" text-decoration="none" x="200" y="60">UNREGISTERED</text><text fill="#eeeeee" stroke="none" font-family="Arial" font-size="24px" font-style="normal" font-weight="normal" text-decoration="none" x="200" y="90">UNREGISTERED</text><text fill="#eeeeee" stroke="none" font-family="Arial" font-size="24px" font-style="normal" font-weight="normal" text-decoration="none" x="200" y="120">UNREGISTERED</text><text fill="#eeeeee" stroke="none" font-family="Arial" font-size="24px" font-style="normal" font-weight="normal" text-decoration="none" x="200" y="150">UNREGISTERED</text><text fill="#eeeeee" stroke="none" font-family="Arial" font-size="24px" font-style="normal" font-weight="normal" text-decoration="none" x="200" y="180">UNREGISTERED</text><text fill="#eeeeee" stroke="none" font-family="Arial" font-size="24px" font-style="normal" font-weight="normal" text-decoration="none" x="200" y="210">UNREGISTERED</text><text fill="#eeeeee" stroke="none" font-family="Arial" font-size="24px" font-style="normal" font-weight="normal" text-decoration="none" x="200" y="240">UNREGISTERED</text><text fill="#eeeeee" stroke="none" font-family="Arial" font-size="24px" font-style="normal" font-weight="normal" text-decoration="none" x="200" y="270">UNREGISTERED</text><text fill="#eeeeee" stroke="none" font-family="Arial" font-size="24px" font-style="normal" font-weight="normal" text-decoration="none" x="200" y="300">UNREGISTERED</text><text fill="#eeeeee" stroke="none" font-family="Arial" font-size="24px" font-style="normal" font-weight="normal" text-decoration="none" x="200" y="330">UNREGISTERED</text><text fill="#eeeeee" stroke="none" font-family="Arial" font-size="24px" font-style="normal" font-weight="normal" text-decoration="none" x="200" y="360">UNREGISTERED</text><text fill="#eeeeee" stroke="none" font-family="Arial" font-size="24px" font-style="normal" font-weight="normal" text-decoration="none" x="200" y="390">UNREGISTERED</text><text fill="#eeeeee" stroke="none" font-family="Arial" font-size="24px" font-style="normal" font-weight="normal" text-decoration="none" x="200" y="420">UNREGISTERED</text><text fill="#eeeeee" stroke="none" font-family="Arial" font-size="24px" font-style="normal" font-weight="normal" text-decoration="none" x="200" y="450">UNREGISTERED</text><text fill="#eeeeee" stroke="none" font-family="Arial" font-size="24px" font-style="normal" font-weight="normal" text-decoration="none" x="200" y="480">UNREGISTERED</text><text fill="#eeeeee" stroke="none" font-family="Arial" font-size="24px" font-style="normal" font-weight="normal" text-decoration="none" x="200" y="510">UNREGISTERED</text><text fill="#eeeeee" stroke="none" font-family="Arial" font-size="24px" font-style="normal" font-weight="normal" text-decoration="none" x="200" y="540">UNREGISTERED</text><text fill="#eeeeee" stroke="none" font-family="Arial" font-size="24px" font-style="normal" font-weight="normal" text-decoration="none" x="200" y="570">UNREGISTERED</text><text fill="#eeeeee" stroke="none" font-family="Arial" font-size="24px" font-style="normal" font-weight="normal" text-decoration="none" x="200" y="600">UNREGISTERED</text><text fill="#eeeeee" stroke="none" font-family="Arial" font-size="24px" font-style="normal" font-weight="normal" text-decoration="none" x="200" y="630">UNREGISTERED</text><text fill="#eeeeee" stroke="none" font-family="Arial" font-size="24px" font-style="normal" font-weight="normal" text-decoration="none" x="400" y="0">UNREGISTERED</text><text fill="#eeeeee" stroke="none" font-family="Arial" font-size="24px" font-style="normal" font-weight="normal" text-decoration="none" x="400" y="30">UNREGISTERED</text><text fill="#eeeeee" stroke="none" font-family="Arial" font-size="24px" font-style="normal" font-weight="normal" text-decoration="none" x="400" y="60">UNREGISTERED</text><text fill="#eeeeee" stroke="none" font-family="Arial" font-size="24px" font-style="normal" font-weight="normal" text-decoration="none" x="400" y="90">UNREGISTERED</text><text fill="#eeeeee" stroke="none" font-family="Arial" font-size="24px" font-style="normal" font-weight="normal" text-decoration="none" x="400" y="120">UNREGISTERED</text><text fill="#eeeeee" stroke="none" font-family="Arial" font-size="24px" font-style="normal" font-weight="normal" text-decoration="none" x="400" y="150">UNREGISTERED</text><text fill="#eeeeee" stroke="none" font-family="Arial" font-size="24px" font-style="normal" font-weight="normal" text-decoration="none" x="400" y="180">UNREGISTERED</text><text fill="#eeeeee" stroke="none" font-family="Arial" font-size="24px" font-style="normal" font-weight="normal" text-decoration="none" x="400" y="210">UNREGISTERED</text><text fill="#eeeeee" stroke="none" font-family="Arial" font-size="24px" font-style="normal" font-weight="normal" text-decoration="none" x="400" y="240">UNREGISTERED</text><text fill="#eeeeee" stroke="none" font-family="Arial" font-size="24px" font-style="normal" font-weight="normal" text-decoration="none" x="400" y="270">UNREGISTERED</text><text fill="#eeeeee" stroke="none" font-family="Arial" font-size="24px" font-style="normal" font-weight="normal" text-decoration="none" x="400" y="300">UNREGISTERED</text><text fill="#eeeeee" stroke="none" font-family="Arial" font-size="24px" font-style="normal" font-weight="normal" text-decoration="none" x="400" y="330">UNREGISTERED</text><text fill="#eeeeee" stroke="none" font-family="Arial" font-size="24px" font-style="normal" font-weight="normal" text-decoration="none" x="400" y="360">UNREGISTERED</text><text fill="#eeeeee" stroke="none" font-family="Arial" font-size="24px" font-style="normal" font-weight="normal" text-decoration="none" x="400" y="390">UNREGISTERED</text><text fill="#eeeeee" stroke="none" font-family="Arial" font-size="24px" font-style="normal" font-weight="normal" text-decoration="none" x="400" y="420">UNREGISTERED</text><text fill="#eeeeee" stroke="none" font-family="Arial" font-size="24px" font-style="normal" font-weight="normal" text-decoration="none" x="400" y="450">UNREGISTERED</text><text fill="#eeeeee" stroke="none" font-family="Arial" font-size="24px" font-style="normal" font-weight="normal" text-decoration="none" x="400" y="480">UNREGISTERED</text><text fill="#eeeeee" stroke="none" font-family="Arial" font-size="24px" font-style="normal" font-weight="normal" text-decoration="none" x="400" y="510">UNREGISTERED</text><text fill="#eeeeee" stroke="none" font-family="Arial" font-size="24px" font-style="normal" font-weight="normal" text-decoration="none" x="400" y="540">UNREGISTERED</text><text fill="#eeeeee" stroke="none" font-family="Arial" font-size="24px" font-style="normal" font-weight="normal" text-decoration="none" x="400" y="570">UNREGISTERED</text><text fill="#eeeeee" stroke="none" font-family="Arial" font-size="24px" font-style="normal" font-weight="normal" text-decoration="none" x="400" y="600">UNREGISTERED</text><text fill="#eeeeee" stroke="none" font-family="Arial" font-size="24px" font-style="normal" font-weight="normal" text-decoration="none" x="400" y="630">UNREGISTERED</text><text fill="#eeeeee" stroke="none" font-family="Arial" font-size="24px" font-style="normal" font-weight="normal" text-decoration="none" x="600" y="0">UNREGISTERED</text><text fill="#eeeeee" stroke="none" font-family="Arial" font-size="24px" font-style="normal" font-weight="normal" text-decoration="none" x="600" y="30">UNREGISTERED</text><text fill="#eeeeee" stroke="none" font-family="Arial" font-size="24px" font-style="normal" font-weight="normal" text-decoration="none" x="600" y="60">UNREGISTERED</text><text fill="#eeeeee" stroke="none" font-family="Arial" font-size="24px" font-style="normal" font-weight="normal" text-decoration="none" x="600" y="90">UNREGISTERED</text><text fill="#eeeeee" stroke="none" font-family="Arial" font-size="24px" font-style="normal" font-weight="normal" text-decoration="none" x="600" y="120">UNREGISTERED</text><text fill="#eeeeee" stroke="none" font-family="Arial" font-size="24px" font-style="normal" font-weight="normal" text-decoration="none" x="600" y="150">UNREGISTERED</text><text fill="#eeeeee" stroke="none" font-family="Arial" font-size="24px" font-style="normal" font-weight="normal" text-decoration="none" x="600" y="180">UNREGISTERED</text><text fill="#eeeeee" stroke="none" font-family="Arial" font-size="24px" font-style="normal" font-weight="normal" text-decoration="none" x="600" y="210">UNREGISTERED</text><text fill="#eeeeee" stroke="none" font-family="Arial" font-size="24px" font-style="normal" font-weight="normal" text-decoration="none" x="600" y="240">UNREGISTERED</text><text fill="#eeeeee" stroke="none" font-family="Arial" font-size="24px" font-style="normal" font-weight="normal" text-decoration="none" x="600" y="270">UNREGISTERED</text><text fill="#eeeeee" stroke="none" font-family="Arial" font-size="24px" font-style="normal" font-weight="normal" text-decoration="none" x="600" y="300">UNREGISTERED</text><text fill="#eeeeee" stroke="none" font-family="Arial" font-size="24px" font-style="normal" font-weight="normal" text-decoration="none" x="600" y="330">UNREGISTERED</text><text fill="#eeeeee" stroke="none" font-family="Arial" font-size="24px" font-style="normal" font-weight="normal" text-decoration="none" x="600" y="360">UNREGISTERED</text><text fill="#eeeeee" stroke="none" font-family="Arial" font-size="24px" font-style="normal" font-weight="normal" text-decoration="none" x="600" y="390">UNREGISTERED</text><text fill="#eeeeee" stroke="none" font-family="Arial" font-size="24px" font-style="normal" font-weight="normal" text-decoration="none" x="600" y="420">UNREGISTERED</text><text fill="#eeeeee" stroke="none" font-family="Arial" font-size="24px" font-style="normal" font-weight="normal" text-decoration="none" x="600" y="450">UNREGISTERED</text><text fill="#eeeeee" stroke="none" font-family="Arial" font-size="24px" font-style="normal" font-weight="normal" text-decoration="none" x="600" y="480">UNREGISTERED</text><text fill="#eeeeee" stroke="none" font-family="Arial" font-size="24px" font-style="normal" font-weight="normal" text-decoration="none" x="600" y="510">UNREGISTERED</text><text fill="#eeeeee" stroke="none" font-family="Arial" font-size="24px" font-style="normal" font-weight="normal" text-decoration="none" x="600" y="540">UNREGISTERED</text><text fill="#eeeeee" stroke="none" font-family="Arial" font-size="24px" font-style="normal" font-weight="normal" text-decoration="none" x="600" y="570">UNREGISTERED</text><text fill="#eeeeee" stroke="none" font-family="Arial" font-size="24px" font-style="normal" font-weight="normal" text-decoration="none" x="600" y="600">UNREGISTERED</text><text fill="#eeeeee" stroke="none" font-family="Arial" font-size="24px" font-style="normal" font-weight="normal" text-decoration="none" x="600" y="630">UNREGISTERED</text><text fill="#eeeeee" stroke="none" font-family="Arial" font-size="24px" font-style="normal" font-weight="normal" text-decoration="none" x="800" y="0">UNREGISTERED</text><text fill="#eeeeee" stroke="none" font-family="Arial" font-size="24px" font-style="normal" font-weight="normal" text-decoration="none" x="800" y="30">UNREGISTERED</text><text fill="#eeeeee" stroke="none" font-family="Arial" font-size="24px" font-style="normal" font-weight="normal" text-decoration="none" x="800" y="60">UNREGISTERED</text><text fill="#eeeeee" stroke="none" font-family="Arial" font-size="24px" font-style="normal" font-weight="normal" text-decoration="none" x="800" y="90">UNREGISTERED</text><text fill="#eeeeee" stroke="none" font-family="Arial" font-size="24px" font-style="normal" font-weight="normal" text-decoration="none" x="800" y="120">UNREGISTERED</text><text fill="#eeeeee" stroke="none" font-family="Arial" font-size="24px" font-style="normal" font-weight="normal" text-decoration="none" x="800" y="150">UNREGISTERED</text><text fill="#eeeeee" stroke="none" font-family="Arial" font-size="24px" font-style="normal" font-weight="normal" text-decoration="none" x="800" y="180">UNREGISTERED</text><text fill="#eeeeee" stroke="none" font-family="Arial" font-size="24px" font-style="normal" font-weight="normal" text-decoration="none" x="800" y="210">UNREGISTERED</text><text fill="#eeeeee" stroke="none" font-family="Arial" font-size="24px" font-style="normal" font-weight="normal" text-decoration="none" x="800" y="240">UNREGISTERED</text><text fill="#eeeeee" stroke="none" font-family="Arial" font-size="24px" font-style="normal" font-weight="normal" text-decoration="none" x="800" y="270">UNREGISTERED</text><text fill="#eeeeee" stroke="none" font-family="Arial" font-size="24px" font-style="normal" font-weight="normal" text-decoration="none" x="800" y="300">UNREGISTERED</text><text fill="#eeeeee" stroke="none" font-family="Arial" font-size="24px" font-style="normal" font-weight="normal" text-decoration="none" x="800" y="330">UNREGISTERED</text><text fill="#eeeeee" stroke="none" font-family="Arial" font-size="24px" font-style="normal" font-weight="normal" text-decoration="none" x="800" y="360">UNREGISTERED</text><text fill="#eeeeee" stroke="none" font-family="Arial" font-size="24px" font-style="normal" font-weight="normal" text-decoration="none" x="800" y="390">UNREGISTERED</text><text fill="#eeeeee" stroke="none" font-family="Arial" font-size="24px" font-style="normal" font-weight="normal" text-decoration="none" x="800" y="420">UNREGISTERED</text><text fill="#eeeeee" stroke="none" font-family="Arial" font-size="24px" font-style="normal" font-weight="normal" text-decoration="none" x="800" y="450">UNREGISTERED</text><text fill="#eeeeee" stroke="none" font-family="Arial" font-size="24px" font-style="normal" font-weight="normal" text-decoration="none" x="800" y="480">UNREGISTERED</text><text fill="#eeeeee" stroke="none" font-family="Arial" font-size="24px" font-style="normal" font-weight="normal" text-decoration="none" x="800" y="510">UNREGISTERED</text><text fill="#eeeeee" stroke="none" font-family="Arial" font-size="24px" font-style="normal" font-weight="normal" text-decoration="none" x="800" y="540">UNREGISTERED</text><text fill="#eeeeee" stroke="none" font-family="Arial" font-size="24px" font-style="normal" font-weight="normal" text-decoration="none" x="800" y="570">UNREGISTERED</text><text fill="#eeeeee" stroke="none" font-family="Arial" font-size="24px" font-style="normal" font-weight="normal" text-decoration="none" x="800" y="600">UNREGISTERED</text><text fill="#eeeeee" stroke="none" font-family="Arial" font-size="24px" font-style="normal" font-weight="normal" text-decoration="none" x="800" y="630">UNREGISTERED</text><text fill="#eeeeee" stroke="none" font-family="Arial" font-size="24px" font-style="normal" font-weight="normal" text-decoration="none" x="1000" y="0">UNREGISTERED</text><text fill="#eeeeee" stroke="none" font-family="Arial" font-size="24px" font-style="normal" font-weight="normal" text-decoration="none" x="1000" y="30">UNREGISTERED</text><text fill="#eeeeee" stroke="none" font-family="Arial" font-size="24px" font-style="normal" font-weight="normal" text-decoration="none" x="1000" y="60">UNREGISTERED</text><text fill="#eeeeee" stroke="none" font-family="Arial" font-size="24px" font-style="normal" font-weight="normal" text-decoration="none" x="1000" y="90">UNREGISTERED</text><text fill="#eeeeee" stroke="none" font-family="Arial" font-size="24px" font-style="normal" font-weight="normal" text-decoration="none" x="1000" y="120">UNREGISTERED</text><text fill="#eeeeee" stroke="none" font-family="Arial" font-size="24px" font-style="normal" font-weight="normal" text-decoration="none" x="1000" y="150">UNREGISTERED</text><text fill="#eeeeee" stroke="none" font-family="Arial" font-size="24px" font-style="normal" font-weight="normal" text-decoration="none" x="1000" y="180">UNREGISTERED</text><text fill="#eeeeee" stroke="none" font-family="Arial" font-size="24px" font-style="normal" font-weight="normal" text-decoration="none" x="1000" y="210">UNREGISTERED</text><text fill="#eeeeee" stroke="none" font-family="Arial" font-size="24px" font-style="normal" font-weight="normal" text-decoration="none" x="1000" y="240">UNREGISTERED</text><text fill="#eeeeee" stroke="none" font-family="Arial" font-size="24px" font-style="normal" font-weight="normal" text-decoration="none" x="1000" y="270">UNREGISTERED</text><text fill="#eeeeee" stroke="none" font-family="Arial" font-size="24px" font-style="normal" font-weight="normal" text-decoration="none" x="1000" y="300">UNREGISTERED</text><text fill="#eeeeee" stroke="none" font-family="Arial" font-size="24px" font-style="normal" font-weight="normal" text-decoration="none" x="1000" y="330">UNREGISTERED</text><text fill="#eeeeee" stroke="none" font-family="Arial" font-size="24px" font-style="normal" font-weight="normal" text-decoration="none" x="1000" y="360">UNREGISTERED</text><text fill="#eeeeee" stroke="none" font-family="Arial" font-size="24px" font-style="normal" font-weight="normal" text-decoration="none" x="1000" y="390">UNREGISTERED</text><text fill="#eeeeee" stroke="none" font-family="Arial" font-size="24px" font-style="normal" font-weight="normal" text-decoration="none" x="1000" y="420">UNREGISTERED</text><text fill="#eeeeee" stroke="none" font-family="Arial" font-size="24px" font-style="normal" font-weight="normal" text-decoration="none" x="1000" y="450">UNREGISTERED</text><text fill="#eeeeee" stroke="none" font-family="Arial" font-size="24px" font-style="normal" font-weight="normal" text-decoration="none" x="1000" y="480">UNREGISTERED</text><text fill="#eeeeee" stroke="none" font-family="Arial" font-size="24px" font-style="normal" font-weight="normal" text-decoration="none" x="1000" y="510">UNREGISTERED</text><text fill="#eeeeee" stroke="none" font-family="Arial" font-size="24px" font-style="normal" font-weight="normal" text-decoration="none" x="1000" y="540">UNREGISTERED</text><text fill="#eeeeee" stroke="none" font-family="Arial" font-size="24px" font-style="normal" font-weight="normal" text-decoration="none" x="1000" y="570">UNREGISTERED</text><text fill="#eeeeee" stroke="none" font-family="Arial" font-size="24px" font-style="normal" font-weight="normal" text-decoration="none" x="1000" y="600">UNREGISTERED</text><text fill="#eeeeee" stroke="none" font-family="Arial" font-size="24px" font-style="normal" font-weight="normal" text-decoration="none" x="1000" y="630">UNREGISTERED</text><g transform="translate(-30,-62) scale(1,1)"><path fill="#C0C0C0" stroke="none" d="M 257 279 L 511.1162109375 279 Q 521.1162109375 279 521.1162109375 289 L 521.1162109375 309 Q 521.1162109375 319 511.1162109375 319 L 257 319 Q 247 319 247 309 L 247 289 Q 247 279 257 279 Z" opacity="0.2"/></g><g transform="translate(-30,-62) scale(1,1)"><path fill="#ffffff" stroke="none" d="M 250 272 L 504.1162109375 272 Q 514.1162109375 272 514.1162109375 282 L 514.1162109375 302 Q 514.1162109375 312 504.1162109375 312 L 250 312 Q 240 312 240 302 L 240 282 Q 240 272 250 272 Z"/></g><g transform="translate(-30,-62) scale(1,1)"><path fill="none" stroke="#000000" d="M 250 272 L 504.1162109375 272 Q 514.1162109375 272 514.1162109375 282 L 514.1162109375 302 Q 514.1162109375 312 504.1162109375 312 L 250 312 Q 240 312 240 302 L 240 282 Q 240 272 250 272 Z" stroke-miterlimit="10"/></g><g transform="translate(-30,-62) scale(1,1)"><g><path fill="none" stroke="none"/><text fill="#000000" stroke="none" font-family="Arial" font-size="13px" font-style="normal" font-weight="bold" text-decoration="none" x="244.5" y="290">choose “Pickup at Home” &amp; set date &amp; slot</text></g></g><g transform="translate(-30,-62) scale(1,1)"><path fill="#C0C0C0" stroke="none" d="M 111 296.5 C 111 291.2532944 115.2532944 287 120.5 287 C 125.7467056 287 130 291.2532944 130 296.5 C 130 301.7467056 125.7467056 306 120.5 306 C 115.2532944 306 111 301.7467056 111 296.5 Z" opacity="0.2"/></g><g transform="translate(-30,-62) scale(1,1)"><path fill="#000000" stroke="none" d="M 104 289.5 C 104 284.2532944 108.2532944 280 113.5 280 C 118.7467056 280 123 284.2532944 123 289.5 C 123 294.7467056 118.7467056 299 113.5 299 C 108.2532944 299 104 294.7467056 104 289.5 Z"/></g><g transform="translate(-30,-62) scale(1,1)"><path fill="none" stroke="#000000" d="M 124 289 L 239 290" stroke-miterlimit="10"/></g><g transform="translate(-30,-62) scale(1,1)"><path fill="none" stroke="#000000" d="M 228.80110622430792 294.12099087018515 L 239 290 L 228.87431246109108 285.70227364012266" stroke-miterlimit="10"/></g><g transform="translate(-30,-62) scale(1,1)"><g><path fill="none" stroke="none"/><text fill="#000000" stroke="none" font-family="Arial" font-size="13px" font-style="normal" font-weight="normal" text-decoration="none" x="159.5" y="282">Client</text></g></g><g transform="translate(-30,-62) scale(1,1)"><path fill="#C0C0C0" stroke="none" d="M 609 279 L 746.1162109375 279 Q 756.1162109375 279 756.1162109375 289 L 756.1162109375 309 Q 756.1162109375 319 746.1162109375 319 L 609 319 Q 599 319 599 309 L 599 289 Q 599 279 609 279 Z" opacity="0.2"/></g><g transform="translate(-30,-62) scale(1,1)"><path fill="#ffffff" stroke="none" d="M 602 272 L 739.1162109375 272 Q 749.1162109375 272 749.1162109375 282 L 749.1162109375 302 Q 749.1162109375 312 739.1162109375 312 L 602 312 Q 592 312 592 302 L 592 282 Q 592 272 602 272 Z"/></g><g transform="translate(-30,-62) scale(1,1)"><path fill="none" stroke="#000000" d="M 602 272 L 739.1162109375 272 Q 749.1162109375 272 749.1162109375 282 L 749.1162109375 302 Q 749.1162109375 312 739.1162109375 312 L 602 312 Q 592 312 592 302 L 592 282 Q 592 272 602 272 Z" stroke-miterlimit="10"/></g><g transform="translate(-30,-62) scale(1,1)"><g><path fill="none" stroke="none"/><text fill="#000000" stroke="none" font-family="Arial" font-size="13px" font-style="normal" font-weight="bold" text-decoration="none" x="596.5" y="290">Validate pickup address</text></g></g><g transform="translate(-30,-62) scale(1,1)"><path fill="none" stroke="#000000" d="M 515 292 L 591 292" stroke-miterlimit="10"/></g><g transform="translate(-30,-62) scale(1,1)"><path fill="none" stroke="#000000" d="M 580.8373251423759 296.209517756016 L 591 292 L 580.8373251423758 287.790482243984" stroke-miterlimit="10"/></g><g transform="translate(-30,-62) scale(1,1)"><path fill="#C0C0C0" stroke="none" d="M 871 299.5 L 895.5 279 L 919 299.5 L 895.5 319 L 871 299.5" opacity="0.2"/></g><g transform="translate(-30,-62) scale(1,1)"><path fill="#ffffff" stroke="none" d="M 864 292 L 888 272 L 912 292 L 888 312 L 864 292"/></g><g transform="translate(-30,-62) scale(1,1)"><path fill="none" stroke="#000000" d="M 864 292 L 888 272 L 912 292 L 888 312 L 864 292 L 864 292" stroke-miterlimit="10"/></g><g transform="translate(-30,-62) scale(1,1)"><path fill="#C0C0C0" stroke="none" d="M 857 79 L 931.26171875 79 Q 941.26171875 79 941.26171875 89 L 941.26171875 109 Q 941.26171875 119 931.26171875 119 L 857 119 Q 847 119 847 109 L 847 89 Q 847 79 857 79 Z" opacity="0.2"/></g><g transform="translate(-30,-62) scale(1,1)"><path fill="#ffffff" stroke="none" d="M 850 72 L 924.26171875 72 Q 934.26171875 72 934.26171875 82 L 934.26171875 102 Q 934.26171875 112 924.26171875 112 L 850 112 Q 840 112 840 102 L 840 82 Q 840 72 850 72 Z"/></g><g transform="translate(-30,-62) scale(1,1)"><path fill="none" stroke="#000000" d="M 850 72 L 924.26171875 72 Q 934.26171875 72 934.26171875 82 L 934.26171875 102 Q 934.26171875 112 924.26171875 112 L 850 112 Q 840 112 840 102 L 840 82 Q 840 72 850 72 Z" stroke-miterlimit="10"/></g><g transform="translate(-30,-62) scale(1,1)"><g><path fill="none" stroke="none"/><text fill="#000000" stroke="none" font-family="Arial" font-size="13px" font-style="normal" font-weight="bold" text-decoration="none" x="844.5" y="90">ask to correct</text></g></g><g transform="translate(-30,-62) scale(1,1)"><path fill="none" stroke="#000000" d="M 888 271 L 887 113" stroke-miterlimit="10"/></g><g transform="translate(-30,-62) scale(1,1)"><path fill="none" stroke="#000000" d="M 891.2737528855009 123.13582933329448 L 887 113 L 882.8548859919312 123.18911330097531" stroke-miterlimit="10"/></g><g transform="translate(-30,-62) scale(1,1)"><g><path fill="none" stroke="none"/><text fill="#000000" stroke="none" font-family="Arial" font-size="13px" font-style="normal" font-weight="normal" text-decoration="none" x="887.5" y="202">«invalidAddress»</text></g></g><g transform="translate(-30,-62) scale(1,1)"><path fill="none" stroke="#000000" d="M 864 113 L 693 271" stroke-miterlimit="10"/></g><g transform="translate(-30,-62) scale(1,1)"><path fill="none" stroke="#000000" d="M 697.6074869134758 261.0114533418445 L 693 271 L 703.320954316927 267.195016164567" stroke-miterlimit="10"/></g><g transform="translate(-30,-62) scale(1,1)"><path fill="none" stroke="#000000" d="M 750 292 L 863 292" stroke-miterlimit="10"/></g><g transform="translate(-30,-62) scale(1,1)"><path fill="none" stroke="#000000" d="M 852.8373251423759 296.209517756016 L 863 292 L 852.8373251423758 287.790482243984" stroke-miterlimit="10"/></g><g transform="translate(-30,-62) scale(1,1)"><path fill="#C0C0C0" stroke="none" d="M 833 431 L 958.54443359375 431 Q 968.54443359375 431 968.54443359375 441 L 968.54443359375 461 Q 968.54443359375 471 958.54443359375 471 L 833 471 Q 823 471 823 461 L 823 441 Q 823 431 833 431 Z" opacity="0.2"/></g><g transform="translate(-30,-62) scale(1,1)"><path fill="#ffffff" stroke="none" d="M 826 424 L 951.54443359375 424 Q 961.54443359375 424 961.54443359375 434 L 961.54443359375 454 Q 961.54443359375 464 951.54443359375 464 L 826 464 Q 816 464 816 454 L 816 434 Q 816 424 826 424 Z"/></g><g transform="translate(-30,-62) scale(1,1)"><path fill="none" stroke="#000000" d="M 826 424 L 951.54443359375 424 Q 961.54443359375 424 961.54443359375 434 L 961.54443359375 454 Q 961.54443359375 464 951.54443359375 464 L 826 464 Q 816 464 816 454 L 816 434 Q 816 424 826 424 Z" stroke-miterlimit="10"/></g><g transform="translate(-30,-62) scale(1,1)"><g><path fill="none" stroke="none"/><text fill="#000000" stroke="none" font-family="Arial" font-size="13px" font-style="normal" font-weight="bold" text-decoration="none" x="820.5" y="442">Create pickup request</text></g></g><g transform="translate(-30,-62) scale(1,1)"><path fill="none" stroke="#000000" d="M 888 313 L 888 423" stroke-miterlimit="10"/></g><g transform="translate(-30,-62) scale(1,1)"><path fill="none" stroke="#000000" d="M 883.790482243984 412.83732514237585 L 888 423 L 892.209517756016 412.83732514237585" stroke-miterlimit="10"/></g><g transform="translate(-30,-62) scale(1,1)"><g><path fill="none" stroke="none"/><text fill="#000000" stroke="none" font-family="Arial" font-size="13px" font-style="normal" font-weight="normal" text-decoration="none" x="902.5" y="363">APIGateway</text></g></g><g transform="translate(-30,-62) scale(1,1)"><g><path fill="none" stroke="none"/><text fill="#000000" stroke="none" font-family="Arial" font-size="13px" font-style="normal" font-weight="normal" text-decoration="none" x="893.5" y="379">«validAddress»</text></g></g><g transform="translate(-30,-62) scale(1,1)"><path fill="#C0C0C0" stroke="none" d="M 617 431 L 699.9326171875 431 Q 709.9326171875 431 709.9326171875 441 L 709.9326171875 461 Q 709.9326171875 471 699.9326171875 471 L 617 471 Q 607 471 607 461 L 607 441 Q 607 431 617 431 Z" opacity="0.2"/></g><g transform="translate(-30,-62) scale(1,1)"><path fill="#ffffff" stroke="none" d="M 610 424 L 692.9326171875 424 Q 702.9326171875 424 702.9326171875 434 L 702.9326171875 454 Q 702.9326171875 464 692.9326171875 464 L 610 464 Q 600 464 600 454 L 600 434 Q 600 424 610 424 Z"/></g><g transform="translate(-30,-62) scale(1,1)"><path fill="none" stroke="#000000" d="M 610 424 L 692.9326171875 424 Q 702.9326171875 424 702.9326171875 434 L 702.9326171875 454 Q 702.9326171875 464 692.9326171875 464 L 610 464 Q 600 464 600 454 L 600 434 Q 600 424 610 424 Z" stroke-miterlimit="10"/></g><g transform="translate(-30,-62) scale(1,1)"><g><path fill="none" stroke="none"/><text fill="#000000" stroke="none" font-family="Arial" font-size="13px" font-style="normal" font-weight="bold" text-decoration="none" x="604.5" y="442">Persist request</text></g></g><g transform="translate(-30,-62) scale(1,1)"><path fill="none" stroke="#000000" d="M 815 444 L 704 444" stroke-miterlimit="10"/></g><g transform="translate(-30,-62) scale(1,1)"><path fill="none" stroke="#000000" d="M 714.1626748576241 439.790482243984 L 704 444 L 714.1626748576241 448.209517756016" stroke-miterlimit="10"/></g><g transform="translate(-30,-62) scale(1,1)"><g><path fill="none" stroke="none"/><text fill="#000000" stroke="none" font-family="Arial" font-size="13px" font-style="normal" font-weight="normal" text-decoration="none" x="716.5" y="464">PickupService</text></g></g><g transform="translate(-30,-62) scale(1,1)"><path fill="#C0C0C0" stroke="none" d="M 1073 431 L 1200.6962890625 431 Q 1210.6962890625 431 1210.6962890625 441 L 1210.6962890625 461 Q 1210.6962890625 471 1200.6962890625 471 L 1073 471 Q 1063 471 1063 461 L 1063 441 Q 1063 431 1073 431 Z" opacity="0.2"/></g><g transform="translate(-30,-62) scale(1,1)"><path fill="#ffffff" stroke="none" d="M 1066 424 L 1193.6962890625 424 Q 1203.6962890625 424 1203.6962890625 434 L 1203.6962890625 454 Q 1203.6962890625 464 1193.6962890625 464 L 1066 464 Q 1056 464 1056 454 L 1056 434 Q 1056 424 1066 424 Z"/></g><g transform="translate(-30,-62) scale(1,1)"><path fill="none" stroke="#000000" d="M 1066 424 L 1193.6962890625 424 Q 1203.6962890625 424 1203.6962890625 434 L 1203.6962890625 454 Q 1203.6962890625 464 1193.6962890625 464 L 1066 464 Q 1056 464 1056 454 L 1056 434 Q 1056 424 1066 424 Z" stroke-miterlimit="10"/></g><g transform="translate(-30,-62) scale(1,1)"><g><path fill="none" stroke="none"/><text fill="#000000" stroke="none" font-family="Arial" font-size="13px" font-style="normal" font-weight="bold" text-decoration="none" x="1060.5" y="442">PickupRequest Stored</text></g></g><g transform="translate(-30,-62) scale(1,1)"><path fill="none" stroke="#000000" d="M 963 444 L 1055 444" stroke-miterlimit="10"/></g><g transform="translate(-30,-62) scale(1,1)"><path fill="none" stroke="#000000" d="M 1044.837325142376 448.209517756016 L 1055 444 L 1044.837325142376 439.790482243984" stroke-miterlimit="10"/></g><g transform="translate(-30,-62) scale(1,1)"><g><path fill="none" stroke="none"/><text fill="#000000" stroke="none" font-family="Arial" font-size="13px" font-style="normal" font-weight="normal" text-decoration="none" x="980.5" y="434">DataBase</text></g></g><g transform="translate(-30,-62) scale(1,1)"><path fill="#C0C0C0" stroke="none" d="M 471 451.5 L 495.5 431 L 519 451.5 L 495.5 471 L 471 451.5" opacity="0.2"/></g><g transform="translate(-30,-62) scale(1,1)"><path fill="#ffffff" stroke="none" d="M 464 444 L 488 424 L 512 444 L 488 464 L 464 444"/></g><g transform="translate(-30,-62) scale(1,1)"><path fill="none" stroke="#000000" d="M 464 444 L 488 424 L 512 444 L 488 464 L 464 444 L 464 444" stroke-miterlimit="10"/></g><g transform="translate(-30,-62) scale(1,1)"><path fill="none" stroke="#000000" d="M 599 444 L 513 444" stroke-miterlimit="10"/></g><g transform="translate(-30,-62) scale(1,1)"><path fill="none" stroke="#000000" d="M 523.1626748576241 439.790482243984 L 513 444 L 523.1626748576241 448.209517756016" stroke-miterlimit="10"/></g><g transform="translate(-30,-62) scale(1,1)"><path fill="#C0C0C0" stroke="none" d="M 273 431 L 386.97900390625 431 Q 396.97900390625 431 396.97900390625 441 L 396.97900390625 461 Q 396.97900390625 471 386.97900390625 471 L 273 471 Q 263 471 263 461 L 263 441 Q 263 431 273 431 Z" opacity="0.2"/></g><g transform="translate(-30,-62) scale(1,1)"><path fill="#ffffff" stroke="none" d="M 266 424 L 379.97900390625 424 Q 389.97900390625 424 389.97900390625 434 L 389.97900390625 454 Q 389.97900390625 464 379.97900390625 464 L 266 464 Q 256 464 256 454 L 256 434 Q 256 424 266 424 Z"/></g><g transform="translate(-30,-62) scale(1,1)"><path fill="none" stroke="#000000" d="M 266 424 L 379.97900390625 424 Q 389.97900390625 424 389.97900390625 434 L 389.97900390625 454 Q 389.97900390625 464 379.97900390625 464 L 266 464 Q 256 464 256 454 L 256 434 Q 256 424 266 424 Z" stroke-miterlimit="10"/></g><g transform="translate(-30,-62) scale(1,1)"><g><path fill="none" stroke="none"/><text fill="#000000" stroke="none" font-family="Arial" font-size="13px" font-style="normal" font-weight="bold" text-decoration="none" x="260.5" y="442">Find nearest courier</text></g></g><g transform="translate(-30,-62) scale(1,1)"><path fill="none" stroke="#000000" d="M 463 444 L 391 444" stroke-miterlimit="10"/></g><g transform="translate(-30,-62) scale(1,1)"><path fill="none" stroke="#000000" d="M 401.16267485762415 439.790482243984 L 391 444 L 401.16267485762415 448.209517756016" stroke-miterlimit="10"/></g><g transform="translate(-30,-62) scale(1,1)"><g><path fill="none" stroke="none"/><text fill="#000000" stroke="none" font-family="Arial" font-size="13px" font-style="normal" font-weight="normal" text-decoration="none" x="468.5" y="419">autoAssignEnabled</text></g></g><g transform="translate(-30,-62) scale(1,1)"><g><path fill="none" stroke="none"/><text fill="#000000" stroke="none" font-family="Arial" font-size="13px" font-style="normal" font-weight="normal" text-decoration="none" x="406.5" y="441.5">«true»</text></g></g><g transform="translate(-30,-62) scale(1,1)"><path fill="#C0C0C0" stroke="none" d="M 73 431 L 169.6181640625 431 Q 179.6181640625 431 179.6181640625 441 L 179.6181640625 461 Q 179.6181640625 471 169.6181640625 471 L 73 471 Q 63 471 63 461 L 63 441 Q 63 431 73 431 Z" opacity="0.2"/></g><g transform="translate(-30,-62) scale(1,1)"><path fill="#ffffff" stroke="none" d="M 66 424 L 162.6181640625 424 Q 172.6181640625 424 172.6181640625 434 L 172.6181640625 454 Q 172.6181640625 464 162.6181640625 464 L 66 464 Q 56 464 56 454 L 56 434 Q 56 424 66 424 Z"/></g><g transform="translate(-30,-62) scale(1,1)"><path fill="none" stroke="#000000" d="M 66 424 L 162.6181640625 424 Q 172.6181640625 424 172.6181640625 434 L 172.6181640625 454 Q 172.6181640625 464 162.6181640625 464 L 66 464 Q 56 464 56 454 L 56 434 Q 56 424 66 424 Z" stroke-miterlimit="10"/></g><g transform="translate(-30,-62) scale(1,1)"><g><path fill="none" stroke="none"/><text fill="#000000" stroke="none" font-family="Arial" font-size="13px" font-style="normal" font-weight="bold" text-decoration="none" x="60.5" y="442">geo-filter by zone</text></g></g><g transform="translate(-30,-62) scale(1,1)"><path fill="none" stroke="#000000" d="M 255 444 L 174 444" stroke-miterlimit="10"/></g><g transform="translate(-30,-62) scale(1,1)"><path fill="none" stroke="#000000" d="M 184.16267485762415 439.790482243984 L 174 444 L 184.16267485762415 448.209517756016" stroke-miterlimit="10"/></g><g transform="translate(-30,-62) scale(1,1)"><path fill="#C0C0C0" stroke="none" d="M 81 543 L 161.025390625 543 Q 171.025390625 543 171.025390625 553 L 171.025390625 573 Q 171.025390625 583 161.025390625 583 L 81 583 Q 71 583 71 573 L 71 553 Q 71 543 81 543 Z" opacity="0.2"/></g><g transform="translate(-30,-62) scale(1,1)"><path fill="#ffffff" stroke="none" d="M 74 536 L 154.025390625 536 Q 164.025390625 536 164.025390625 546 L 164.025390625 566 Q 164.025390625 576 154.025390625 576 L 74 576 Q 64 576 64 566 L 64 546 Q 64 536 74 536 Z"/></g><g transform="translate(-30,-62) scale(1,1)"><path fill="none" stroke="#000000" d="M 74 536 L 154.025390625 536 Q 164.025390625 536 164.025390625 546 L 164.025390625 566 Q 164.025390625 576 154.025390625 576 L 74 576 Q 64 576 64 566 L 64 546 Q 64 536 74 536 Z" stroke-miterlimit="10"/></g><g transform="translate(-30,-62) scale(1,1)"><g><path fill="none" stroke="none"/><text fill="#000000" stroke="none" font-family="Arial" font-size="13px" font-style="normal" font-weight="bold" text-decoration="none" x="68.5" y="554">Assign courier</text></g></g><g transform="translate(-30,-62) scale(1,1)"><path fill="none" stroke="#000000" d="M 114 465 L 114 535" stroke-miterlimit="10"/></g><g transform="translate(-30,-62) scale(1,1)"><path fill="none" stroke="#000000" d="M 109.79048224398402 524.8373251423759 L 114 535 L 118.20951775601598 524.8373251423759" stroke-miterlimit="10"/></g><g transform="translate(-30,-62) scale(1,1)"><g><path fill="none" stroke="none"/><text fill="#000000" stroke="none" font-family="Arial" font-size="13px" font-style="normal" font-weight="normal" text-decoration="none" x="130.5" y="502">DataBase</text></g></g><g transform="translate(-30,-62) scale(1,1)"><path fill="#C0C0C0" stroke="none" d="M 57 671 L 181.07177734375 671 Q 191.07177734375 671 191.07177734375 681 L 191.07177734375 701 Q 191.07177734375 711 181.07177734375 711 L 57 711 Q 47 711 47 701 L 47 681 Q 47 671 57 671 Z" opacity="0.2"/></g><g transform="translate(-30,-62) scale(1,1)"><path fill="#ffffff" stroke="none" d="M 50 664 L 174.07177734375 664 Q 184.07177734375 664 184.07177734375 674 L 184.07177734375 694 Q 184.07177734375 704 174.07177734375 704 L 50 704 Q 40 704 40 694 L 40 674 Q 40 664 50 664 Z"/></g><g transform="translate(-30,-62) scale(1,1)"><path fill="none" stroke="#000000" d="M 50 664 L 174.07177734375 664 Q 184.07177734375 664 184.07177734375 674 L 184.07177734375 694 Q 184.07177734375 704 174.07177734375 704 L 50 704 Q 40 704 40 694 L 40 674 Q 40 664 50 664 Z" stroke-miterlimit="10"/></g><g transform="translate(-30,-62) scale(1,1)"><g><path fill="none" stroke="none"/><text fill="#000000" stroke="none" font-family="Arial" font-size="13px" font-style="normal" font-weight="bold" text-decoration="none" x="44.5" y="682">Push task notification</text></g></g><g transform="translate(-30,-62) scale(1,1)"><path fill="none" stroke="#000000" d="M 114 577 L 112 663" stroke-miterlimit="10"/></g><g transform="translate(-30,-62) scale(1,1)"><path fill="none" stroke="#000000" d="M 108.02789749637546 652.7422028826506 L 112 663 L 116.44465728583253 652.9379414824056" stroke-miterlimit="10"/></g><g transform="translate(-30,-62) scale(1,1)"><g><path fill="none" stroke="none"/><text fill="#000000" stroke="none" font-family="Arial" font-size="13px" font-style="normal" font-weight="normal" text-decoration="none" x="118.5" y="631">CourierApp</text></g></g><g transform="translate(-30,-62) scale(1,1)"><path fill="#C0C0C0" stroke="none" d="M 457 543 L 539.919921875 543 Q 549.919921875 543 549.919921875 553 L 549.919921875 573 Q 549.919921875 583 539.919921875 583 L 457 583 Q 447 583 447 573 L 447 553 Q 447 543 457 543 Z" opacity="0.2"/></g><g transform="translate(-30,-62) scale(1,1)"><path fill="#ffffff" stroke="none" d="M 450 536 L 532.919921875 536 Q 542.919921875 536 542.919921875 546 L 542.919921875 566 Q 542.919921875 576 532.919921875 576 L 450 576 Q 440 576 440 566 L 440 546 Q 440 536 450 536 Z"/></g><g transform="translate(-30,-62) scale(1,1)"><path fill="none" stroke="#000000" d="M 450 536 L 532.919921875 536 Q 542.919921875 536 542.919921875 546 L 542.919921875 566 Q 542.919921875 576 532.919921875 576 L 450 576 Q 440 576 440 566 L 440 546 Q 440 536 450 536 Z" stroke-miterlimit="10"/></g><g transform="translate(-30,-62) scale(1,1)"><g><path fill="none" stroke="none"/><text fill="#000000" stroke="none" font-family="Arial" font-size="13px" font-style="normal" font-weight="bold" text-decoration="none" x="444.5" y="554">Leave in queue</text></g></g><g transform="translate(-30,-62) scale(1,1)"><path fill="none" stroke="#000000" d="M 489 465 L 490 535" stroke-miterlimit="10"/></g><g transform="translate(-30,-62) scale(1,1)"><path fill="none" stroke="#000000" d="M 485.6457454636101 524.8984918238746 L 490 535 L 494.06392202185606 524.7782321587569" stroke-miterlimit="10"/></g><g transform="translate(-30,-62) scale(1,1)"><g><path fill="none" stroke="none"/><text fill="#000000" stroke="none" font-family="Arial" font-size="13px" font-style="normal" font-weight="normal" text-decoration="none" x="497.5" y="504">«false»</text></g></g><g transform="translate(-30,-62) scale(1,1)"><path fill="#ffffff" stroke="none" d="M 584 536 L 709 536 L 719 546 L 719 574 L 584 574 L 584 536"/></g><g transform="translate(-30,-62) scale(1,1)"><path fill="none" stroke="#000000" d="M 584 536 L 709 536 L 719 546 L 719 574 L 584 574 L 584 536 L 584 536" stroke-miterlimit="10"/></g><g transform="translate(-30,-62) scale(1,1)"><path fill="none" stroke="#000000" d="M 709 536 L 709 546 L 719 546 L 709 536" stroke-miterlimit="10"/></g><g transform="translate(-30,-62) scale(1,1)"><g><path fill="none" stroke="none"/><text fill="#000000" stroke="none" font-family="Arial" font-size="13px" font-style="normal" font-weight="normal" text-decoration="none" x="589" y="551">state = Requested</text></g></g><g transform="translate(-30,-62) scale(1,1)"><path fill="none" stroke="#000000" d="M 544 556 L 583 555" stroke-miterlimit="10" stroke-dasharray="3"/></g><g transform="translate(-30,-62) scale(1,1)"><path fill="#C0C0C0" stroke="none" d="M 361 671 L 674.3271484375 671 Q 684.3271484375 671 684.3271484375 681 L 684.3271484375 701 Q 684.3271484375 711 674.3271484375 711 L 361 711 Q 351 711 351 701 L 351 681 Q 351 671 361 671 Z" opacity="0.2"/></g><g transform="translate(-30,-62) scale(1,1)"><path fill="#ffffff" stroke="none" d="M 354 664 L 667.3271484375 664 Q 677.3271484375 664 677.3271484375 674 L 677.3271484375 694 Q 677.3271484375 704 667.3271484375 704 L 354 704 Q 344 704 344 694 L 344 674 Q 344 664 354 664 Z"/></g><g transform="translate(-30,-62) scale(1,1)"><path fill="none" stroke="#000000" d="M 354 664 L 667.3271484375 664 Q 677.3271484375 664 677.3271484375 674 L 677.3271484375 694 Q 677.3271484375 704 667.3271484375 704 L 354 704 Q 344 704 344 694 L 344 674 Q 344 664 354 664 Z" stroke-miterlimit="10"/></g><g transform="translate(-30,-62) scale(1,1)"><g><path fill="none" stroke="none"/><text fill="#000000" stroke="none" font-family="Arial" font-size="13px" font-style="normal" font-weight="bold" text-decoration="none" x="348.5" y="682">Show pickup status to client Assigned or Requested</text></g></g><g transform="translate(-30,-62) scale(1,1)"><path fill="none" stroke="#000000" d="M 185 684 L 343 684" stroke-miterlimit="10"/></g><g transform="translate(-30,-62) scale(1,1)"><path fill="none" stroke="#000000" d="M 332.83732514237585 688.209517756016 L 343 684 L 332.83732514237585 679.790482243984" stroke-miterlimit="10"/></g><g transform="translate(-30,-62) scale(1,1)"><path fill="#C0C0C0" stroke="none" d="M 815 691.5 C 815 684.59644 820.59644 679 827.5 679 C 834.40356 679 840 684.59644 840 691.5 C 840 698.40356 834.40356 704 827.5 704 C 820.59644 704 815 698.40356 815 691.5 Z" opacity="0.2"/></g><g transform="translate(-30,-62) scale(1,1)"><path fill="none" stroke="#000000" d="M 808 684.5 C 808 677.59644 813.59644 672 820.5 672 C 827.40356 672 833 677.59644 833 684.5 C 833 691.40356 827.40356 697 820.5 697 C 813.59644 697 808 691.40356 808 684.5 Z" stroke-miterlimit="10"/></g><g transform="translate(-30,-62) scale(1,1)"><path fill="#000000" stroke="none" d="M 813 684.5 C 813 680.357864 816.357864 677 820.5 677 C 824.642136 677 828 680.357864 828 684.5 C 828 688.642136 824.642136 692 820.5 692 C 816.357864 692 813 688.642136 813 684.5 Z"/></g><g transform="translate(-30,-62) scale(1,1)"><path fill="none" stroke="#000000" d="M 678 684 L 807 684" stroke-miterlimit="10"/></g><g transform="translate(-30,-62) scale(1,1)"><path fill="none" stroke="#000000" d="M 796.8373251423759 688.209517756016 L 807 684 L 796.8373251423758 679.790482243984" stroke-miterlimit="10"/></g></g></svg>